<svg xmlns="http://www.w3.org/2000/svg" width="55" height="55"><path fill="#FFF" d="M27.443.057c15.156 0 27.442 12.287 27.442 27.443S42.6 54.943 27.443 54.943 0 42.656 0 27.5 12.286.057 27.443.057zm4.822 18.831v2.297h8.038v-2.297h-8.038zm4.253 3.835c-7.428 0-7.42 7.387-7.42 7.387s-.51 7.31 7.42 7.31c0 0 6.611.414 6.611-5.212h-3.4s.112 2.203-3.098 2.203c0 0-3.398.208-3.398-3.237h10.01s1.093-8.45-6.725-8.45zm3.02 5.81h-6.343s.414-2.978 3.398-2.978c2.986 0 2.945 2.978 2.945 2.978zM24.717 26.56s2.947-.22 2.947-3.676-2.41-5.143-5.464-5.143H12.056v19.29H22.2s6.134.208 6.134-5.688c0 0 .268-4.783-3.617-4.783zm-8.183-5.374H22.2s1.366.027 1.366 2.036c0 2.008-.805 2.327-1.715 2.327h-5.317v-4.363zm5.381 12.42c-.148.002-.275-.02-.36-.02h-5.02v-5.052H22.2s2.035-.073 2.035 2.608c0 2.258-1.519 2.445-2.32 2.464z"/></svg>