<svg xmlns="http://www.w3.org/2000/svg" xmlns:xlink="http://www.w3.org/1999/xlink" width="394" height="250"><defs><path id="a" d="M162.965 29.69H39.562l-3.32-24.597C35.761 1.53 33.771 0 30.237 0H5.906A5.9 5.9 0 0 0 0 5.896a5.898 5.898 0 0 0 5.908 5.894l19.262-.002 13.802 83.816C41.272 110.03 44.583 124 63.366 124l64.969-.002c19.023 0 21.114-13.549 24.528-27.181l14.493-57.855c1.118-4.469 1.394-9.271-4.39-9.271zm-11.788 26.698H70.778c-3.25 0-5.906 2.65-5.906 5.894v.004c0 3.241 2.656 5.894 5.906 5.894h77.446l-3.371 13.458H85.221c-3.248 0-5.905 2.65-5.905 5.894v.004c0 3.241 2.657 5.892 5.905 5.892h56.677l-.627 2.502c-1.867 7.459-2.292 16.282-12.938 16.282h-64.97c-11.246 0-11.53-10.088-12.868-18.11l-8.788-52.625h113.205l-3.735 14.911z"/></defs><g fill="none" fill-rule="evenodd"><path fill="#8EC5FC" d="M321.499 124.814c0 68.933-55.853 124.814-124.75 124.814C127.852 249.628 72 193.748 72 124.814 72 55.881 127.852 0 196.75 0c68.896 0 124.749 55.881 124.749 124.814"/><path fill="#8EC5FC" d="M332.943 9.24H208.605a4.495 4.495 0 0 1-4.494-4.495 4.495 4.495 0 0 1 4.494-4.496h124.338a4.495 4.495 0 0 1 4.494 4.496 4.495 4.495 0 0 1-4.494 4.496"/><path fill="#CDE6FF" d="M213.488 18.022h91.206a4.39 4.39 0 0 0 4.388-4.39 4.39 4.39 0 0 0-4.388-4.391h-91.206a4.39 4.39 0 0 0-4.388 4.39 4.39 4.39 0 0 0 4.388 4.391"/><path fill="#8EC5FC" d="M72.58 28.154h78.628a5.065 5.065 0 0 0 5.063-5.066 5.065 5.065 0 0 0-5.063-5.066H72.58a5.065 5.065 0 0 0-5.063 5.066 5.065 5.065 0 0 0 5.063 5.066"/><path fill="#CDE6FF" d="M199.584 36.287H83.426a4.065 4.065 0 0 1-4.064-4.067 4.065 4.065 0 0 1 4.064-4.066h116.158a4.065 4.065 0 0 1 4.064 4.066 4.065 4.065 0 0 1-4.064 4.067"/><path fill="#8EC5FC" d="M32.391 49.445h93.942a6.577 6.577 0 0 0 6.576-6.58 6.577 6.577 0 0 0-6.576-6.578H32.39a6.577 6.577 0 0 0-6.576 6.579 6.577 6.577 0 0 0 6.576 6.579m354.167 3.833H197.714a6.915 6.915 0 0 1-6.912-6.916 6.915 6.915 0 0 1 6.912-6.917h188.844a6.915 6.915 0 0 1 6.913 6.917 6.915 6.915 0 0 1-6.913 6.916"/><path fill="#CDE6FF" d="M236.549 67.51h90.89a7.114 7.114 0 0 0 7.11-7.116 7.114 7.114 0 0 0-7.11-7.116h-90.89a7.113 7.113 0 0 0-7.112 7.116 7.114 7.114 0 0 0 7.112 7.115"/><path fill="#8EC5FC" d="M349.308 78.419H242.001a5.453 5.453 0 0 1-5.452-5.455A5.453 5.453 0 0 1 242 67.509h107.307a5.453 5.453 0 0 1 5.452 5.455 5.453 5.453 0 0 1-5.452 5.455m-297.06 24.274h185.951a7.135 7.135 0 0 0 7.134-7.137 7.135 7.135 0 0 0-7.134-7.137H52.247a7.135 7.135 0 0 0-7.134 7.137 7.135 7.135 0 0 0 7.134 7.137"/><path fill="#CDE6FF" d="M147.91 116.01H22.47a6.656 6.656 0 0 1-6.654-6.658 6.656 6.656 0 0 1 6.655-6.659h125.438a6.656 6.656 0 0 1 6.655 6.659 6.656 6.656 0 0 1-6.655 6.658"/><path fill="#8EC5FC" d="M347.497 206.376H262.01a5.9 5.9 0 0 1-5.898-5.902 5.9 5.9 0 0 1 5.898-5.901h85.487a5.9 5.9 0 0 1 5.899 5.9 5.9 5.9 0 0 1-5.899 5.903M27.154 153.623h110.79a6.346 6.346 0 0 0 6.344-6.347 6.346 6.346 0 0 0-6.344-6.348H27.154a6.346 6.346 0 0 0-6.345 6.348 6.346 6.346 0 0 0 6.345 6.347"/><path fill="#CDE6FF" d="M74.37 167.855h59.499a7.114 7.114 0 0 0 7.112-7.116 7.114 7.114 0 0 0-7.112-7.116H74.37a7.114 7.114 0 0 0-7.113 7.116 7.114 7.114 0 0 0 7.113 7.116"/><path fill="#FEFEFE" d="M88.62 27.08H45.112a.956.956 0 0 1 0-1.912H88.62a.956.956 0 0 1 0 1.912m-13.792 4.406H45.113a.956.956 0 0 1 0-1.912h29.714a.956.956 0 0 1 0 1.912M46.99 128.145H23.339a.956.956 0 0 1 0-1.912H46.99a.956.956 0 0 1 0 1.912m113.672 0H137.01a.956.956 0 0 1 0-1.912h23.652a.956.956 0 0 1 0 1.912m-34.319 0h-6.727a.956.956 0 0 1 0-1.912h6.727a.956.956 0 0 1 0 1.912m-70.886-6.987h-32.12a.956.956 0 0 1 0-1.912h32.12a.956.956 0 0 1 0 1.912m293.948-72.026h-29.713a.956.956 0 0 1 0-1.912h29.713a.956.956 0 0 1 0 1.912m-63.775-4h-29.714a.956.956 0 0 1 0-1.912h29.714a.956.956 0 0 1 0 1.912m-38.686-30.545h-56.148a.956.956 0 0 1 0-1.912h56.148a.956.956 0 0 1 0 1.912m-109.108 27.55h-29.713a.956.956 0 0 1 0-1.912h29.713a.956.956 0 0 1 0 1.912m-40.709 6h-11.67a.956.956 0 0 1 0-1.912h11.67a.956.956 0 0 1 0 1.912m-31.323 32.94h-39.99a.956.956 0 0 1 0-1.912h39.99a.956.956 0 0 1 0 1.912m259.729-9h-52.717a.956.956 0 0 1 0-1.912h52.717a.956.956 0 0 1 0 1.912m35.146 99.414h-29.713a.956.956 0 0 1 0-1.912h29.713a.956.956 0 0 1 0 1.912M147.765 10.197h-29.713a.956.956 0 0 1 0-1.912h29.713a.956.956 0 0 1 0 1.912m0 207.47h-29.713a.956.956 0 0 1 0-1.912h29.713a.956.956 0 0 1 0 1.912m156.033 0h-29.713a.956.956 0 0 1 0-1.912h29.713a.956.956 0 0 1 0 1.912m-196.134 0H95.19a.956.956 0 0 1 0-1.912h12.474a.956.956 0 0 1 0 1.912m253.016-50.764h-34.424a.956.956 0 0 1 0-1.912h34.424a.956.956 0 0 1 0 1.912M121.33 187.21H86.908a.956.956 0 0 1 0-1.912h34.423a.956.956 0 0 1 0 1.912m36.294-14.308h-34.423a.956.956 0 0 1 0-1.912h34.423a.956.956 0 0 1 0 1.912m-103.713-6H40.07a.956.956 0 0 1 0-1.912h13.843a.956.956 0 0 1 0 1.912m265.355-17.813h-34.423a.956.956 0 0 1 0-1.912h34.423a.956.956 0 0 1 0 1.912m41.413 13.43h-23.244a.956.956 0 0 1 0-1.912h23.244a.956.956 0 0 1 0 1.912M349.406 55.465h-36.88a.956.956 0 0 1 0-1.912h36.88a.956.956 0 0 1 0 1.912m-67.97 57.828h-36.88a.956.956 0 0 1 0-1.912h36.88a.956.956 0 0 1 0 1.912M81.478 36.025H45.113a.956.956 0 0 1 0-1.912h36.365a.956.956 0 0 1 0 1.912"/><path d="M58.09 33.06a5.815 5.815 0 0 0-6.277-5.797c-1.182-3.438-4.441-5.91-8.28-5.91a8.76 8.76 0 0 0-2.21.282 10.694 10.694 0 0 0-8.505-4.203c-4.253 0-7.928 2.48-9.658 6.073a7.72 7.72 0 0 0-8.776 7.648 7.72 7.72 0 0 0 7.718 7.722h30.214a5.814 5.814 0 0 0 5.775-5.816m283.4 138.13a5.815 5.815 0 0 1 6.277-5.795 8.757 8.757 0 0 1 8.28-5.91 8.78 8.78 0 0 1 2.21.282 10.695 10.695 0 0 1 8.505-4.203c4.253 0 7.928 2.48 9.659 6.072a7.72 7.72 0 0 1 8.775 7.648 7.72 7.72 0 0 1-7.718 7.723h-30.214v-.001a5.814 5.814 0 0 1-5.775-5.815m42.493-124.556c-.628 0-1.23.11-1.79.313a8.022 8.022 0 0 0-6.086-5.635c-1.546-4.982-6.19-8.6-11.677-8.6-5.886 0-10.8 4.163-11.963 9.707a7.556 7.556 0 0 0-9.347 4.448 5.166 5.166 0 0 0-5.683 5.142 5.167 5.167 0 0 0 5.165 5.167h41.38a5.27 5.27 0 0 0 5.27-5.27 5.27 5.27 0 0 0-5.27-5.272M4.079 122.541c.46 0 .902.081 1.312.23a5.879 5.879 0 0 1 4.461-4.13 8.966 8.966 0 0 1 8.56-6.304c4.314 0 7.915 3.051 8.768 7.114a5.536 5.536 0 0 1 6.85 3.26 3.787 3.787 0 0 1 4.166 3.769 3.787 3.787 0 0 1-3.785 3.788H4.078a3.863 3.863 0 0 1-3.861-3.863 3.863 3.863 0 0 1 3.861-3.864" fill="#FEFEFE"/><g transform="translate(107 50)"><path d="M50.772 94.823C52.108 102.875 52.392 113 63.618 113h64.849c10.626 0 11.053-8.856 12.914-16.342l.626-2.512H85.435c-3.242 0-5.894-2.66-5.894-5.914v-.004c0-3.253 2.652-5.916 5.894-5.916h59.524l3.365-13.51H71.019c-3.244 0-5.896-2.66-5.896-5.916v-.004c0-3.253 2.652-5.916 5.896-5.916h80.253L155 42H42l8.772 52.823z"/><circle cx="117" cy="146" r="12" fill="#0056AD" fill-rule="nonzero"/><circle cx="72" cy="146" r="12" fill="#0056AD" fill-rule="nonzero"/><g fill-rule="nonzero"><use fill="#0056AD" fill-rule="evenodd" xlink:href="#a"/><path stroke="#0056AD" d="M24.746 12.288l-18.838.002C2.366 12.29-.5 9.43-.5 5.896A6.4 6.4 0 0 1 5.906-.5h24.332c3.85 0 5.994 1.776 6.499 5.526l3.262 24.165h122.966c2.905 0 4.635 1.168 5.264 3.32.488 1.669.304 3.804-.388 6.573l-14.493 57.854a329.868 329.868 0 0 0-.548 2.218l-.18.738c-2.23 9.11-3.643 13.161-6.523 17.005-3.768 5.03-9.383 7.6-17.762 7.6l-64.97.001c-8.919 0-14.915-3.081-18.795-9.015-3.02-4.616-4.548-10.118-6.091-19.8L24.746 12.288zm126.041 43.6l3.485-13.91H42.297l8.691 52.042c.102.607.192 1.188.338 2.16.211 1.407.226 1.507.313 2.054 1.513 9.547 4.153 13.478 11.725 13.478h64.97c4.122 0 6.817-1.332 8.616-3.922 1.393-2.006 2.075-4.14 3.133-8.924l.052-.235c.308-1.396.456-2.046.65-2.823l.472-1.88H85.221c-3.524 0-6.405-2.875-6.405-6.392v-.004c0-3.52 2.88-6.394 6.405-6.394h59.242l3.12-12.458H70.779c-3.525 0-6.406-2.876-6.406-6.394v-.004c0-3.52 2.88-6.394 6.406-6.394h80.01z"/></g></g><path d="M289.18 119.183H175.82c-4.32 0-7.821-3.156-7.821-7.05 0-3.894 3.502-7.05 7.821-7.05h113.36c4.32 0 7.822 3.156 7.822 7.05 0 3.894-3.502 7.05-7.822 7.05M189.46 144.5h108.107c3.743 0 6.778-3.246 6.778-7.25s-3.035-7.25-6.778-7.25H189.458c-3.742 0-6.777 3.246-6.777 7.25s3.035 7.25 6.777 7.25" fill="#CDE6FF"/></g></svg>