<svg xmlns="http://www.w3.org/2000/svg" width="60" height="60"><g fill="none" fill-rule="evenodd"><path d="M48.482 4.11c-2.033 0-3.795.729-5.24 2.171-1.438 1.441-2.167 3.203-2.167 5.236 0 2.032.729 3.794 2.167 5.235l.003.004c1.442 1.438 3.204 2.168 5.237 2.168 2.036 0 3.798-.73 5.236-2.17 1.44-1.44 2.171-3.202 2.171-5.237s-.73-3.797-2.169-5.236c-1.438-1.44-3.2-2.171-5.238-2.171zm2.408 9.818c-.68.68-1.445.997-2.407.997-.961 0-1.727-.317-2.41-.998-.681-.683-.998-1.448-.998-2.409 0-.962.317-1.728.996-2.407.684-.683 1.45-1 2.412-1 .963 0 1.728.316 2.408.998.682.682.999 1.447.999 2.409 0 .962-.318 1.727-1 2.41z"/><path fill="#8EC5FC" fill-rule="nonzero" d="M48.482 8.11c-.962 0-1.729.317-2.412 1-.678.68-.996 1.445-.996 2.407 0 .961.317 1.727.998 2.409.683.681 1.449.998 2.41.998.962 0 1.728-.317 2.407-.997.683-.683 1-1.448 1-2.41 0-.962-.317-1.728-.999-2.409-.68-.681-1.445-.998-2.408-.998z"/><path fill="#8EC5FC" fill-rule="nonzero" d="M59.033 25.159c.642-1.547.967-2.953.967-4.179V3.407c0-.934-.324-1.691-1.02-2.388C58.285.324 57.527 0 56.593 0H39.02c-1.221 0-2.626.325-4.177.967-1.54.638-2.751 1.402-3.6 2.273L.976 33.464C.311 34.13 0 34.889 0 35.851c0 .954.322 1.738 1.015 2.469L21.76 59.021c.668.668 1.427.979 2.389.979.947 0 1.727-.316 2.45-.997L56.743 28.82c.878-.88 1.649-2.112 2.29-3.661zm-5.314-8.404c-1.438 1.439-3.2 2.17-5.236 2.17-2.033 0-3.795-.729-5.237-2.168l-.003-.004c-1.438-1.441-2.167-3.203-2.167-5.235 0-2.033.729-3.795 2.167-5.236 1.445-1.441 3.207-2.171 5.24-2.171 2.038 0 3.8.73 5.238 2.171 1.439 1.439 2.169 3.201 2.169 5.236 0 2.035-.731 3.796-2.171 5.237z"/></g></svg>