<svg xmlns="http://www.w3.org/2000/svg" width="55" height="55"><path fill="#FFF" d="M27.443.057c15.156 0 27.442 12.287 27.442 27.443S42.6 54.943 27.443 54.943 0 42.656 0 27.5 12.286.057 27.443.057zm0 12.484c-8.343 0-15.106 6.763-15.106 15.106S19.1 42.753 27.443 42.753c8.342 0 15.105-6.763 15.105-15.106s-6.763-15.106-15.105-15.106zm9.992 6.87a12.906 12.906 0 0 1 2.948 8.104c-.188-.038-4.576-.982-9.03-.42-.091-.223-.185-.445-.279-.673a43.123 43.123 0 0 0-.863-1.88c5.12-2.09 7.198-5.095 7.224-5.13zm-10.013-4.727c3.282 0 6.28 1.221 8.563 3.234-.032.047-1.878 2.858-6.771 4.694-2.216-4.073-4.653-7.304-4.848-7.565a13.04 13.04 0 0 1 3.056-.363zm-5.531 1.238c.172.23 2.57 3.483 4.813 7.47-6.225 1.655-11.627 1.587-11.969 1.584a12.98 12.98 0 0 1 7.156-9.054zm-7.433 11.725c0-.14.006-.273.01-.413.23.009 6.635.153 13.311-1.846a44.5 44.5 0 0 1 1.052 2.203c-.172.05-.342.1-.512.156-6.995 2.263-10.544 8.557-10.544 8.557l.005.006a12.906 12.906 0 0 1-3.322-8.663zm12.964 12.964a12.9 12.9 0 0 1-7.966-2.749c.023-.05 2.52-5.426 10.172-8.094.03-.01.057-.018.084-.029 1.826 4.742 2.578 8.712 2.771 9.845a12.904 12.904 0 0 1-5.061 1.027zm7.245-2.21c-.133-.782-.823-4.588-2.523-9.261 4.184-.67 7.81.478 8.078.564a12.965 12.965 0 0 1-5.555 8.696z"/></svg>