<svg xmlns="http://www.w3.org/2000/svg" width="174" height="111"><g fill="none" fill-rule="evenodd"><path fill="#E0C3FC" d="M95.215 99.22a3.799 3.799 0 0 1-3.797 3.796H53.445a3.799 3.799 0 0 1-3.798-3.797V46.057l18.987-14.24v15.292c-2.263 1.317-3.797 3.74-3.797 6.542a7.597 7.597 0 0 0 7.594 7.595 7.597 7.597 0 0 0 7.595-7.595c0-2.802-1.534-5.225-3.797-6.542V31.817l18.986 14.24v53.162zm35.273-17.206l-21.356-52.806L76.23 20.49V4.286c0-2.1-1.698-3.797-3.798-3.797a3.794 3.794 0 0 0-3.797 3.797v18.038L42.053 42.259v56.96c0 6.292 5.1 11.392 11.392 11.392h37.973c3.444 0 6.493-1.56 8.586-3.976l24.196-9.79c5.833-2.357 8.647-8.999 6.288-14.831z"/><path fill="#EFDEFF" d="M112.98 85.817h52.863c1.83 0 3.314-1.587 3.314-3.545s-1.484-3.545-3.314-3.545h-52.864c-1.83 0-3.314 1.587-3.314 3.545s1.484 3.545 3.314 3.545m-25.56 24.4h52.864c1.83 0 3.314-1.729 3.314-3.862 0-2.134-1.484-3.863-3.314-3.863H87.42c-1.83 0-3.314 1.73-3.314 3.863s1.484 3.863 3.314 3.863"/><path fill="#E0C3FC" d="M133.954 7.188h-60.8c-1.213 0-2.197-1.587-2.197-3.545S71.941.098 73.155.098h60.8c1.213 0 2.197 1.587 2.197 3.545s-.984 3.545-2.198 3.545"/><path fill="#EFDEFF" d="M88.256 13.213h44.599a2.146 2.146 0 0 0 0-4.293H88.256a2.146 2.146 0 0 0 0 4.293"/><path fill="#E0C3FC" d="M28.156 15.723h38.448a2.477 2.477 0 0 0 0-4.955H28.156a2.477 2.477 0 0 0 0 4.955"/><path fill="#EFDEFF" d="M68.563 17.255H28.002c-.784 0-1.42-.89-1.42-1.989 0-1.098.636-1.988 1.42-1.988h40.56c.784 0 1.42.89 1.42 1.988 0 1.099-.636 1.989-1.42 1.989"/><path fill="#E0C3FC" d="M21.218 31.024h45.936a3.216 3.216 0 0 0 0-6.434H21.218a3.216 3.216 0 0 0 0 6.434m148.911 1.874H88.937c-1.642 0-2.972-1.514-2.972-3.382s1.33-3.382 2.972-3.382h81.192c1.642 0 2.972 1.514 2.972 3.382s-1.33 3.382-2.972 3.382"/><path fill="#EFDEFF" d="M108.334 39.857h44.444a3.479 3.479 0 0 0 3.478-3.48 3.478 3.478 0 0 0-3.478-3.479h-44.444a3.478 3.478 0 0 0-3.477 3.48 3.478 3.478 0 0 0 3.477 3.479"/><path fill="#E0C3FC" d="M163.472 45.192H111a2.667 2.667 0 0 1 0-5.335h52.472a2.667 2.667 0 0 1 0 5.335"/><path fill="#EFDEFF" d="M55.43 39.124H3.171C1.641 39.124.4 37.666.4 35.868c0-1.798 1.241-3.256 2.772-3.256h52.26c1.53 0 2.772 1.458 2.772 3.256 0 1.798-1.241 3.256-2.773 3.256"/><path fill="#E0C3FC" d="M5.943 77.076h54.175a3.103 3.103 0 0 0 0-6.208H5.943a3.103 3.103 0 0 0 0 6.208"/><path fill="#EFDEFF" d="M24.142 84.035h29.093a3.479 3.479 0 0 0 3.478-3.48 3.479 3.479 0 0 0-3.478-3.48H24.142a3.479 3.479 0 0 0-3.478 3.48 3.479 3.479 0 0 0 3.478 3.48"/><path fill="#FEFEFE" d="M55.558 15.198H34.285a.467.467 0 0 1 0-.935h21.273a.467.467 0 0 1 0 .935m-6.744 2.154h-14.53a.467.467 0 0 1 0-.935h14.53a.467.467 0 0 1 0 .935M38.625 74.886H27.06a.467.467 0 0 1 0-.935h11.565a.467.467 0 0 1 0 .935m18.91-8.313H45.97a.467.467 0 0 1 0-.935h11.566a.467.467 0 0 1 0 .935m-3.09-1.956h-3.29a.467.467 0 0 1 0-.935h3.29a.467.467 0 0 1 0 .935m-11.68 6.853H27.06a.467.467 0 0 1 0-.935h15.706a.467.467 0 0 1 0 .935m109.508-37.665h-14.53a.467.467 0 0 1 0-.935h14.53a.467.467 0 0 1 0 .935m-47.658-22.271H77.161a.467.467 0 0 1 0-.935h27.455a.467.467 0 0 1 0 .935M64.466 22.07H49.938a.467.467 0 0 1 0-.935h14.53a.467.467 0 0 1 0 .935m10.41 0h-5.706a.467.467 0 0 1 0-.935h5.707a.467.467 0 0 1 0 .935M24.844 41.6H5.289a.467.467 0 0 1 0-.934h19.554a.467.467 0 0 1 0 .935m127.004 0h-25.778a.467.467 0 0 1 0-.935h25.778a.467.467 0 0 1 0 .935m-35.63 38.06h-14.53a.467.467 0 0 1 0-.935h14.53a.467.467 0 0 1 0 .935M64.92 6.942H50.391a.467.467 0 0 1 0-.935h14.53a.467.467 0 0 1 0 .935m0 101.45H50.39a.467.467 0 0 1 0-.935h14.53a.467.467 0 0 1 0 .935m10.219 0h-6.1a.467.467 0 0 1 0-.935h6.1a.467.467 0 0 1 0 .935m40.935-30.686H99.243a.467.467 0 0 1 0-.935h16.832a.467.467 0 0 1 0 .935m-68.97 14.816H30.272a.467.467 0 0 1 0-.935h16.833a.467.467 0 0 1 0 .935m6.99-2.107H37.261a.467.467 0 0 1 0-.935h16.832a.467.467 0 0 1 0 .935m72.739-1.462H110a.467.467 0 0 1 0-.935h16.833a.467.467 0 0 1 0 .935m19.471-12.714H134.94a.467.467 0 0 1 0-.935h11.365a.467.467 0 0 1 0 .935m5.97-39.338H134.24a.467.467 0 0 1 0-.935h18.034a.467.467 0 0 1 0 .935M52.066 19.571H34.285a.467.467 0 0 1 0-.934h17.781a.467.467 0 0 1 0 .935"/><path d="M40.63 18.61a2.843 2.843 0 0 0-3.07-2.833 4.282 4.282 0 0 0-5.13-2.752 5.24 5.24 0 0 0-8.882.914 3.775 3.775 0 0 0-4.291 3.74 3.775 3.775 0 0 0 3.775 3.776h14.774a2.843 2.843 0 0 0 2.824-2.844m70.859 59.445a2.843 2.843 0 0 1 3.069-2.835 4.282 4.282 0 0 1 5.13-2.752 5.24 5.24 0 0 1 8.882.914 3.775 3.775 0 0 1 4.291 3.74 3.775 3.775 0 0 1-3.775 3.777h-14.774a2.843 2.843 0 0 1-2.823-2.844m28.628-43.376c-.307 0-.602.054-.875.153a3.922 3.922 0 0 0-2.976-2.755 5.98 5.98 0 0 0-5.71-4.205 5.98 5.98 0 0 0-5.85 4.746 3.695 3.695 0 0 0-4.57 2.175 2.526 2.526 0 1 0-.253 5.041h20.234a2.577 2.577 0 0 0 0-5.155m-104 40.235c.225 0 .44.04.641.112a2.875 2.875 0 0 1 2.182-2.02 4.383 4.383 0 0 1 8.473.397 2.707 2.707 0 0 1 3.35 1.594 1.852 1.852 0 1 1 .186 3.695H36.116a1.889 1.889 0 0 1 0-3.778" fill="#FEFEFE"/></g></svg>