<svg xmlns="http://www.w3.org/2000/svg" xmlns:xlink="http://www.w3.org/1999/xlink" width="379" height="250"><defs><path id="a" d="M0 54.591V.183h135.999v54.408z"/></defs><g fill="none" fill-rule="evenodd"><path fill="#8EC5FC" d="M314.499 124.814c0 68.933-55.853 124.814-124.75 124.814C120.852 249.628 65 193.748 65 124.814 65 55.881 120.852 0 189.75 0c68.896 0 124.749 55.881 124.749 124.814"/><path fill="#CDE6FF" d="M252.329 179.5h85.005c2.943 0 5.329-3.246 5.329-7.25s-2.386-7.25-5.33-7.25H252.33c-2.943 0-5.329 3.246-5.329 7.25s2.386 7.25 5.329 7.25"/><path fill="#8EC5FC" d="M317.943 9.24H193.605a4.495 4.495 0 0 1-4.494-4.495 4.495 4.495 0 0 1 4.494-4.496h124.338a4.495 4.495 0 0 1 4.494 4.496 4.495 4.495 0 0 1-4.494 4.496"/><path fill="#CDE6FF" d="M198.488 18.022h91.206a4.39 4.39 0 0 0 4.388-4.39 4.39 4.39 0 0 0-4.388-4.391h-91.206a4.39 4.39 0 0 0-4.388 4.39 4.39 4.39 0 0 0 4.388 4.391"/><path fill="#8EC5FC" d="M57.58 28.154h78.628a5.065 5.065 0 0 0 5.063-5.066 5.065 5.065 0 0 0-5.063-5.066H57.58a5.065 5.065 0 0 0-5.063 5.066 5.065 5.065 0 0 0 5.063 5.066"/><path fill="#CDE6FF" d="M164.584 36.287H48.426a4.065 4.065 0 0 1-4.064-4.067 4.065 4.065 0 0 1 4.064-4.066h116.158a4.065 4.065 0 0 1 4.064 4.066 4.065 4.065 0 0 1-4.064 4.067"/><path fill="#8EC5FC" d="M17.391 49.445h93.942a6.577 6.577 0 0 0 6.576-6.58 6.577 6.577 0 0 0-6.576-6.578H17.39a6.577 6.577 0 0 0-6.576 6.579 6.577 6.577 0 0 0 6.576 6.579m354.167 13.833H182.714a6.915 6.915 0 0 1-6.912-6.916 6.915 6.915 0 0 1 6.912-6.917h188.844a6.915 6.915 0 0 1 6.913 6.917 6.915 6.915 0 0 1-6.913 6.916"/><path fill="#CDE6FF" d="M241.549 77.51h90.89a7.114 7.114 0 0 0 7.11-7.116 7.114 7.114 0 0 0-7.11-7.116h-90.89a7.113 7.113 0 0 0-7.112 7.116 7.114 7.114 0 0 0 7.112 7.115"/><path fill="#8EC5FC" d="M334.308 88.419H227.001a5.453 5.453 0 0 1-5.452-5.455A5.453 5.453 0 0 1 227 77.509h107.307a5.453 5.453 0 0 1 5.452 5.455 5.453 5.453 0 0 1-5.452 5.455m-297.06 14.274h185.951a7.135 7.135 0 0 0 7.134-7.137 7.135 7.135 0 0 0-7.134-7.137H37.247a7.135 7.135 0 0 0-7.134 7.137 7.135 7.135 0 0 0 7.134 7.137"/><path fill="#CDE6FF" d="M113.358 116.01H6.486c-3.132 0-5.67-2.981-5.67-6.658 0-3.678 2.538-6.659 5.67-6.659h106.872c3.131 0 5.67 2.981 5.67 6.659 0 3.677-2.539 6.658-5.67 6.658"/><path fill="#8EC5FC" d="M332.497 206.376H247.01a5.9 5.9 0 0 1-5.898-5.902 5.9 5.9 0 0 1 5.898-5.901h85.487a5.9 5.9 0 0 1 5.899 5.9 5.9 5.9 0 0 1-5.899 5.903M12.154 153.623h110.79a6.346 6.346 0 0 0 6.344-6.347 6.346 6.346 0 0 0-6.344-6.348H12.154a6.346 6.346 0 0 0-6.345 6.348 6.346 6.346 0 0 0 6.345 6.347"/><path fill="#CDE6FF" d="M49.37 167.855h59.499a7.114 7.114 0 0 0 7.112-7.116 7.114 7.114 0 0 0-7.112-7.116H49.37a7.114 7.114 0 0 0-7.113 7.116 7.114 7.114 0 0 0 7.113 7.116"/><path fill="#FEFEFE" d="M84.62 28.08H41.112a.956.956 0 0 1 0-1.912H84.62a.956.956 0 0 1 0 1.912m-13.792 4.406H41.113a.956.956 0 0 1 0-1.912h29.714a.956.956 0 0 1 0 1.912M51.99 130.145H28.339a.956.956 0 0 1 0-1.912H51.99a.956.956 0 0 1 0 1.912m65.672 2H94.01a.956.956 0 0 1 0-1.912h23.652a.956.956 0 0 1 0 1.912m-6.319-4h-6.727a.956.956 0 0 1 0-1.912h6.727a.956.956 0 0 1 0 1.912m-50.886-4.987h-32.12a.956.956 0 0 1 0-1.912h32.12a.956.956 0 0 1 0 1.912m253.948-64.026h-29.713a.956.956 0 0 1 0-1.912h29.713a.956.956 0 0 1 0 1.912m-82.46-44.545h-56.149a.956.956 0 0 1 0-1.912h56.148a.956.956 0 0 1 0 1.912m-109.108 27.55H93.124a.956.956 0 0 1 0-1.912h29.713a.956.956 0 0 1 0 1.912m-36.709 0h-11.67a.956.956 0 0 1 0-1.912h11.67a.956.956 0 0 1 0 1.912m-35.323 38.94h-39.99a.956.956 0 0 1 0-1.912h39.99a.956.956 0 0 1 0 1.912m259.729 0h-52.717a.956.956 0 0 1 0-1.912h52.717a.956.956 0 0 1 0 1.912m-14.854 66.414h-29.713a.956.956 0 0 1 0-1.912h29.713a.956.956 0 0 1 0 1.912M132.765 10.197h-29.713a.956.956 0 0 1 0-1.912h29.713a.956.956 0 0 1 0 1.912m-3 207.47h-29.713a.956.956 0 0 1 0-1.912h29.713a.956.956 0 0 1 0 1.912m169.033-7h-29.713a.956.956 0 0 1 0-1.912h29.713a.956.956 0 0 1 0 1.912m-206.134 7H80.19a.956.956 0 0 1 0-1.912h12.474a.956.956 0 0 1 0 1.912m203.016-74.764h-34.424a.956.956 0 0 1 0-1.912h34.424a.956.956 0 0 1 0 1.912M106.33 187.21H71.908a.956.956 0 0 1 0-1.912h34.423a.956.956 0 0 1 0 1.912m14.294-6.308H86.202a.956.956 0 0 1 0-1.912h34.423a.956.956 0 0 1 0 1.912m-81.713-14H25.07a.956.956 0 0 1 0-1.912h13.843a.956.956 0 0 1 0 1.912m252.355 17.187h-34.423a.956.956 0 0 1 0-1.912h34.423a.956.956 0 0 1 0 1.912m44.413-.57h-23.244a.956.956 0 0 1 0-1.912h23.244a.956.956 0 0 1 0 1.912M314.406 65.465h-36.88a.956.956 0 0 1 0-1.912h36.88a.956.956 0 0 1 0 1.912M77.478 37.025H41.113a.956.956 0 0 1 0-1.912h36.365a.956.956 0 0 1 0 1.912"/><path d="M54.09 34.06a5.815 5.815 0 0 0-6.277-5.797c-1.182-3.438-4.441-5.91-8.28-5.91a8.76 8.76 0 0 0-2.21.282 10.694 10.694 0 0 0-8.505-4.203c-4.253 0-7.928 2.48-9.658 6.073a7.72 7.72 0 0 0-8.776 7.648 7.72 7.72 0 0 0 7.718 7.722h30.214a5.814 5.814 0 0 0 5.775-5.816m232.4 109.13a5.815 5.815 0 0 1 6.277-5.795 8.757 8.757 0 0 1 8.28-5.91 8.78 8.78 0 0 1 2.21.282 10.695 10.695 0 0 1 8.505-4.203c4.253 0 7.928 2.48 9.659 6.072a7.72 7.72 0 0 1 8.775 7.648 7.72 7.72 0 0 1-7.718 7.723h-30.214v-.001a5.814 5.814 0 0 1-5.775-5.815m3.056-83.268c-.628 0-1.23.11-1.789.312a8.022 8.022 0 0 0-6.086-5.634c-1.547-4.982-6.19-8.6-11.678-8.6-5.886 0-10.8 4.163-11.963 9.706a7.556 7.556 0 0 0-9.347 4.448A5.166 5.166 0 0 0 243 65.296a5.167 5.167 0 0 0 5.165 5.168h41.381a5.27 5.27 0 0 0 5.269-5.271 5.27 5.27 0 0 0-5.269-5.271M46.861 129.204c.461 0 .902.081 1.312.229a5.879 5.879 0 0 1 4.461-4.13 8.966 8.966 0 0 1 8.56-6.303c4.314 0 7.915 3.051 8.768 7.114a5.536 5.536 0 0 1 6.85 3.26 3.787 3.787 0 0 1 4.166 3.769 3.787 3.787 0 0 1-3.785 3.788H46.86a3.863 3.863 0 0 1-3.86-3.863 3.863 3.863 0 0 1 3.861-3.864" fill="#FEFEFE"/><g transform="translate(122 145)"><mask id="b" fill="#fff"><use xlink:href="#a"/></mask><path fill="#0056AD" d="M98.979.708a144.909 144.909 0 0 1-8.551 9.981c22.519 3.622 34.238 11.984 34.238 15.383 0 4.398-19.482 17.111-56.667 17.111-37.18 0-56.667-12.713-56.667-17.11 0-3.531 12.609-12.418 36.84-15.783A150.19 150.19 0 0 1 39.597.183C16.245 4.701-.002 14.58-.002 26.073c0 15.753 30.448 28.518 68 28.518 37.554 0 68-12.765 68-28.519 0-11.065-15.055-20.636-37.02-25.364" mask="url(#b)"/></g><path fill="#0056AD" d="M176.5 86.857c0-8.36 6.717-15.14 14.997-15.14 8.286 0 15.002 6.78 15.002 15.14s-6.716 15.14-15.002 15.14c-8.28 0-14.996-6.78-14.996-15.14M191.497 155S229 124.713 229 86.857C229 65.949 212.212 49 191.497 49 170.787 49 154 65.949 154 86.857 154 124.713 191.497 155 191.497 155"/></g></svg>