<svg xmlns="http://www.w3.org/2000/svg" xmlns:xlink="http://www.w3.org/1999/xlink" width="142" height="50"><defs><linearGradient id="a" x1="100%" x2="0%" y1="50%" y2="50%"><stop offset="0%" stop-color="#8EC5FC"/><stop offset="100%" stop-color="#E0C3FC"/></linearGradient><linearGradient id="c" x1="0%" y1="50%" y2="50%"><stop offset="0%" stop-color="#FFF" stop-opacity=".5"/><stop offset="100%" stop-opacity=".5"/></linearGradient><path id="b" d="M0 0v49.02L49.02 0z"/><linearGradient id="d" x1="50%" x2="50%" y1="100%" y2="0%"><stop offset="0%" stop-color="#8EC5FC"/><stop offset="100%" stop-color="#E0C3FC"/></linearGradient><linearGradient id="f" x1="50%" x2="50%" y1="0%" y2="100%"><stop offset="0%" stop-color="#FFF" stop-opacity=".5"/><stop offset="100%" stop-opacity=".5"/></linearGradient><path id="e" d="M49.02 0L0 49.02h49.02z"/><linearGradient id="g" x1="50%" x2="50%" y1="0%" y2="100%"><stop offset="0%" stop-color="#8EC5FC"/><stop offset="100%" stop-color="#E0C3FC"/></linearGradient></defs><g fill="none" fill-rule="evenodd"><g transform="translate(0 .49)"><use fill="url(#a)" xlink:href="#b"/><use fill="url(#c)" fill-opacity=".5" xlink:href="#b"/><use fill="url(#d)" xlink:href="#e"/><use fill="url(#f)" fill-opacity=".5" xlink:href="#e"/><path fill="url(#g)" d="M0 0v49.02h49.02z"/></g><path fill="#8EC5FC" d="M57.19 20.919h14.453V17.14h-9.96V.486H57.19V20.92zm16.808 0h4.494V.486h-4.494V20.92zm8.28 0h4.494v-8.442h8.557V8.986h-8.557V4.264h9.874V.486H82.278V20.92zm16.809 0H114.6V17.14h-11.02v-5.008h9.903v-3.49h-9.903v-4.38h10.79V.487H99.088V20.92zM117.44 4.893h1.89c0 1.403-.43 2.404-1.89 2.89v1.89c2.376-.315 4.15-2.261 4.065-4.808V.486h-4.065v4.407zm6.534 9.244c-.057 5.036 4.179 7.268 8.701 7.268 5.552 0 8.5-2.804 8.5-6.553 0-4.636-4.579-5.58-6.067-5.952-5.123-1.317-6.097-1.517-6.097-3.09 0-1.718 1.66-2.319 3.092-2.319 2.146 0 3.892.63 4.035 3.09h4.35c0-4.72-3.92-6.581-8.185-6.581-3.692 0-7.642 2.003-7.642 6.181 0 3.835 3.063 5.008 6.096 5.81 3.006.8 6.068 1.173 6.068 3.376 0 2.09-2.404 2.547-3.978 2.547-2.404 0-4.522-1.059-4.522-3.777h-4.35z"/><path fill="#E0C3FC" d="M57.19 49.514V29.08h4.489v8.47l7.977-8.47h5.604l-7.977 8.07 8.75 12.363H70.4l-6.148-9.186-2.573 2.604v6.582h-4.49zm19.594-10.13c0-6.067 3.717-10.79 10.036-10.79 6.32 0 10.037 4.723 10.037 10.79C96.857 45.277 93.139 50 86.82 50c-6.319 0-10.036-4.722-10.036-10.617zm4.653 0c0 3.405 1.515 6.839 5.547 6.839 4.031 0 5.547-3.434 5.547-6.84 0-3.577-1.516-7.01-5.547-7.01-4.032 0-5.547 3.433-5.547 7.01zm17.43 0c0-6.067 3.716-10.79 10.036-10.79 6.319 0 10.036 4.723 10.036 10.79 0 5.894-3.717 10.616-10.036 10.616-6.32 0-10.037-4.722-10.037-10.617zm4.815 0c0 3.405 1.516 6.839 5.547 6.839 4.032 0 5.547-3.434 5.547-6.84 0-3.577-1.515-7.01-5.547-7.01-4.031 0-5.547 3.433-5.547 7.01zm18.153 10.13V29.08h4.49v16.655h9.95v3.778h-14.44z"/></g></svg>