<svg xmlns="http://www.w3.org/2000/svg" width="78" height="57"><path fill="#FFF" fill-rule="evenodd" d="M70.3 0H7.7C3.4 0 0 3.5 0 7.7v41.5c0 4.3 3.5 7.7 7.7 7.7h62.5c4.3 0 7.7-3.5 7.7-7.7V7.7C78 3.5 74.5 0 70.3 0zm.2 13.8L55.1 29.3l12.4 12.4c.8.8.8 2 0 2.8-.4.4-.9.6-1.4.6-.5 0-1-.2-1.4-.6L52.2 32.1l-7.6 7.6C43.1 41.3 41 42 39 42c-2 0-4.1-.8-5.6-2.3l-7.5-7.8-13.5 13.6c-.4.3-.9.5-1.4.5-.5 0-1-.2-1.4-.6-.8-.8-.8-2 0-2.8l13.5-13.5L7.5 12.9c-.8-.8-.7-2.1.1-2.8.8-.8 2.1-.7 2.8.1L36.2 37c1.5 1.5 4 1.5 5.5 0l26-26c.8-.8 2-.8 2.8 0 .8.8.8 2 0 2.8z"/></svg>