<svg xmlns="http://www.w3.org/2000/svg" width="16" height="12"><path fill-rule="evenodd" d="M14.439 0H1.58C.698 0 0 .719 0 1.581v8.524c0 .883.719 1.581 1.581 1.581h12.837c.883 0 1.582-.718 1.582-1.581V1.581C16.02.72 15.3 0 14.439 0zm.04 2.834l-3.162 3.184 2.547 2.547a.397.397 0 0 1 0 .575.406.406 0 0 1-.288.123.406.406 0 0 1-.288-.123l-2.567-2.547-1.56 1.56c-.309.33-.74.473-1.15.473a1.65 1.65 0 0 1-1.151-.472L5.32 6.552 2.546 9.345a.49.49 0 0 1-.288.103.406.406 0 0 1-.287-.123.397.397 0 0 1 0-.576l2.772-2.772L1.54 2.649a.397.397 0 0 1 .02-.575.397.397 0 0 1 .576.02L7.435 7.6a.806.806 0 0 0 1.13 0l5.34-5.34a.397.397 0 0 1 .575 0 .397.397 0 0 1 0 .575z"/></svg>