<svg xmlns="http://www.w3.org/2000/svg" width="16" height="18"><g fill="#E0C3FC" fill-rule="evenodd"><path d="M11.645 11.27c-.35.445-.692.834-1.006 1.167 2.649.424 4.028 1.401 4.028 1.798 0 .514-2.292 2-6.667 2-4.374 0-6.667-1.486-6.667-2 0-.412 1.484-1.45 4.334-1.844-.316-.339-.66-.734-1.008-1.182-2.748.528-4.66 1.683-4.66 3.026 0 1.842 3.583 3.334 8 3.334 4.419 0 8-1.492 8-3.334 0-1.293-1.77-2.412-4.354-2.964"/><path d="M6.41 4.41a1.764 1.764 0 1 1 3.53.001 1.764 1.764 0 0 1-3.53 0m1.765 7.94s4.411-3.53 4.411-7.94a4.41 4.41 0 0 0-8.822 0c0 4.41 4.41 7.94 4.41 7.94"/></g></svg>