<svg xmlns="http://www.w3.org/2000/svg" width="21" height="15"><g fill="#E0C3FC" fill-rule="evenodd"><path d="M8.734 7.187c-.375.857-1.19 1.572-1.983 1.572-.967 0-1.67-.708-2.045-1.563-2.178 1.128-1.904 3.981-1.904 3.981 0 .392.308.448.67.448h6.552c.362 0 .671-.056.671-.448 0 0 .218-2.861-1.961-3.99"/><path d="M6.751 8.295c1.09 0 1.958-1.561 1.958-2.85 0-1.291-.885-2.338-1.976-2.338-1.092 0-1.975 1.047-1.975 2.337 0 1.29.9 2.85 1.993 2.85"/><path d="M19.565 13.043c0 .36-.292.653-.652.653H1.957a.652.652 0 0 1-.653-.653V1.957c0-.36.293-.653.653-.653h16.956c.36 0 .652.293.652.653v11.086zM18.913 0H1.957A1.957 1.957 0 0 0 0 1.957v11.086C0 14.124.876 15 1.957 15h16.956c1.08 0 1.957-.876 1.957-1.957V1.957A1.957 1.957 0 0 0 18.913 0z"/><path d="M17.609 3.913H12.39a.652.652 0 1 0 0 1.304h5.218a.652.652 0 1 0 0-1.304m0 2.609H12.39a.652.652 0 1 0 0 1.304h5.218a.652.652 0 1 0 0-1.304m0 2.608H12.39a.652.652 0 1 0 0 1.305h5.218a.652.652 0 1 0 0-1.305"/></g></svg>