<svg xmlns="http://www.w3.org/2000/svg" xmlns:xlink="http://www.w3.org/1999/xlink" width="18" height="18"><defs><path id="a" d="M0 .029v16.846h8.437V.029z"/><path id="c" d="M8.438.543H0v7.313h8.438z"/></defs><g fill="none" fill-rule="evenodd"><g transform="translate(0 .582)"><mask id="b" fill="#fff"><use xlink:href="#a"/></mask><path fill="#E0C3FC" d="M7.944 1.533L.494.038a.408.408 0 0 0-.348.09A.421.421 0 0 0 0 .465v14.292c0 .325.23.605.548.668l7.182 1.437c.2.04.354-.012.512-.142.158-.13.195-.323.195-.527V2.202c0-.326-.174-.606-.493-.67" mask="url(#b)"/></g><g transform="translate(4.5 .02)"><mask id="d" fill="#fff"><use xlink:href="#c"/></mask><path fill="#E0C3FC" d="M7.313 7.856h1.125V1.668c0-.62-.505-1.125-1.126-1.125H0l4.5 1.125h2.813v6.188z" mask="url(#d)"/></g><path fill="#E0C3FC" d="M11.813 14.625h-2.25v1.125h2.25c.62 0 1.124-.504 1.124-1.125v-2.25h-1.124v2.25z"/><path fill="#E0C3FC" d="M17.438 10.125l-3.375-2.813V9h-3.376a.562.562 0 0 0-.562.563v1.124c0 .312.251.563.563.563h3.374v1.688l3.376-2.813z"/></g></svg>