<svg xmlns="http://www.w3.org/2000/svg" width="175" height="110"><g fill="none" fill-rule="evenodd"><path fill="#E0C3FC" fill-rule="nonzero" d="M31.311 60.737l45.473 46.648c5.276 5.488 14.571 1.746 14.571-5.737V77.45h35.172c12.562 0 22.611-9.978 22.611-22.451s-10.05-22.45-22.61-22.45H91.354V8.351c0-7.483-9.295-11.225-14.571-5.737L31.31 49.263a8.41 8.41 0 0 0 0 11.474z"/><path fill="#EFDEFF" d="M107.72 72.6h53.23c1.842 0 3.336-1.587 3.336-3.544 0-1.958-1.494-3.545-3.337-3.545H107.72c-1.843 0-3.337 1.587-3.337 3.545 0 1.957 1.494 3.544 3.337 3.544m-19.695 33.733h53.23c1.842 0 3.336-1.368 3.336-3.055 0-1.688-1.494-3.056-3.336-3.056h-53.23c-1.843 0-3.337 1.368-3.337 3.056 0 1.687 1.494 3.055 3.337 3.055"/><path fill="#E0C3FC" d="M143.745 7.187h-61.22c-1.223 0-2.213-1.587-2.213-3.545 0-1.957.99-3.544 2.212-3.544h61.22c1.223 0 2.213 1.587 2.213 3.544 0 1.958-.99 3.545-2.212 3.545"/><path fill="#EFDEFF" d="M97.73 13.21h44.907c1.194 0 2.16-.96 2.16-2.146a2.154 2.154 0 0 0-2.16-2.146H97.73c-1.193 0-2.16.96-2.16 2.146s.967 2.147 2.16 2.147"/><path fill="#E0C3FC" d="M28.351 15.72h38.714a2.485 2.485 0 0 0 2.493-2.477 2.485 2.485 0 0 0-2.493-2.477H28.351a2.485 2.485 0 0 0-2.493 2.477 2.485 2.485 0 0 0 2.493 2.477"/><path fill="#EFDEFF" d="M85.96 19.696H28.768a1.995 1.995 0 0 1-2.002-1.988c0-1.098.896-1.988 2.002-1.988H85.96c1.105 0 2.001.89 2.001 1.988a1.995 1.995 0 0 1-2 1.988"/><path fill="#E0C3FC" d="M8.563 31.018h46.254c1.788 0 3.238-1.44 3.238-3.217 0-1.776-1.45-3.216-3.238-3.216H8.563c-1.788 0-3.238 1.44-3.238 3.216 0 1.776 1.45 3.217 3.238 3.217m162.744 1.873H89.553c-1.653 0-2.993-1.513-2.993-3.38 0-1.868 1.34-3.382 2.993-3.382h81.754c1.653 0 2.993 1.514 2.993 3.381 0 1.868-1.34 3.381-2.993 3.381"/><path fill="#EFDEFF" d="M109.085 39.849h44.751c1.934 0 3.502-1.558 3.502-3.479s-1.568-3.479-3.502-3.479h-44.751c-1.934 0-3.502 1.558-3.502 3.48 0 1.92 1.568 3.478 3.502 3.478"/><path fill="#E0C3FC" d="M164.604 45.183H111.77a2.676 2.676 0 0 1-2.684-2.667 2.676 2.676 0 0 1 2.684-2.667h52.835a2.676 2.676 0 0 1 2.685 2.667 2.676 2.676 0 0 1-2.685 2.667"/><path fill="#EFDEFF" d="M55.814 48.894H3.194c-1.542 0-2.792-1.458-2.792-3.255 0-1.798 1.25-3.256 2.791-3.256h52.621c1.542 0 2.792 1.458 2.792 3.256 0 1.797-1.25 3.255-2.792 3.255"/><path fill="#E0C3FC" d="M129.246 97.961H87.155a2.895 2.895 0 0 1-2.904-2.885c0-1.593 1.3-2.885 2.904-2.885h42.091a2.895 2.895 0 0 1 2.905 2.885c0 1.594-1.3 2.885-2.905 2.885M5.984 77.061h54.55a3.114 3.114 0 0 0 3.124-3.104 3.113 3.113 0 0 0-3.124-3.103H5.984c-1.725 0-3.124 1.39-3.124 3.103a3.114 3.114 0 0 0 3.124 3.103"/><path fill="#EFDEFF" d="M24.309 84.018h29.295c1.934 0 3.502-1.557 3.502-3.479 0-1.921-1.568-3.479-3.502-3.479H24.309c-1.934 0-3.502 1.558-3.502 3.48 0 1.92 1.568 3.478 3.502 3.478"/><path fill="#FEFEFE" d="M55.943 15.195H34.522a.468.468 0 0 1 0-.935h21.421a.468.468 0 0 1 0 .935m-6.791 2.154h-14.63a.468.468 0 0 1 0-.935h14.63a.468.468 0 0 1 0 .935M38.892 74.87H27.248a.468.468 0 0 1 0-.935h11.646a.468.468 0 0 1 0 .935m19.04-8.311H46.29a.468.468 0 0 1 0-.935h11.645c.26 0 .47.21.47.467 0 .258-.21.468-.47.468m-3.111-1.956H51.51c-.26 0-.47-.21-.47-.467 0-.258.21-.468.47-.468h3.313a.468.468 0 0 1 0 .935m-11.761 6.851H27.247a.468.468 0 1 1 0-.935h15.815a.468.468 0 0 1 0 .935m110.266-37.657h-14.63a.468.468 0 0 1 0-.935h14.63a.468.468 0 0 1 0 .935m-39.124-22.266H86.558a.468.468 0 0 1 0-.935h27.646c.26 0 .47.21.47.467 0 .258-.21.468-.47.468M75.253 22.067h-14.63a.468.468 0 0 1 0-.935h14.63a.468.468 0 0 1 0 .935m10.483 0H79.99a.468.468 0 0 1 0-.935h5.746a.468.468 0 0 1 0 .935M25.015 41.593H5.325c-.26 0-.47-.209-.47-.467s.21-.467.47-.467h19.69c.26 0 .47.209.47.467s-.21.467-.47.467m127.884 0h-25.957c-.26 0-.47-.209-.47-.467s.21-.467.47-.467h25.957c.26 0 .47.209.47.467s-.21.467-.47.467m-10.274 21.43h-14.63c-.26 0-.47-.209-.47-.467s.21-.467.47-.467h14.63c.26 0 .47.21.47.467 0 .258-.21.468-.47.468M65.37 6.94H50.74a.468.468 0 0 1 0-.935h14.63c.26 0 .47.21.47.467 0 .258-.21.468-.47.468m0 101.43H50.74a.468.468 0 0 1 0-.935h14.63a.468.468 0 1 1 0 .935m10.29 0h-6.142a.468.468 0 0 1 0-.935h6.142a.468.468 0 1 1 0 .935m66.822-47.303h-16.949c-.26 0-.47-.21-.47-.467 0-.258.21-.468.47-.468h16.95a.468.468 0 0 1 0 .935M47.43 92.503H30.48c-.259 0-.47-.209-.47-.467s.211-.467.47-.467h16.95c.26 0 .47.209.47.467s-.21.467-.47.467m7.038-2.106h-16.95a.468.468 0 0 1 0-.935h16.95a.468.468 0 0 1 0 .935m65.856-13.684h-16.949a.468.468 0 0 1 0-.935h16.95a.468.468 0 1 1 0 .935m26.992-.49h-11.445c-.26 0-.47-.209-.47-.467s.21-.467.47-.467h11.445c.26 0 .47.21.47.467 0 .258-.21.468-.47.468m6.01-39.33H135.17a.468.468 0 0 1-.001-.935h18.159a.468.468 0 0 1 0 .935M52.427 19.568H34.522a.468.468 0 0 1 0-.935h17.905a.468.468 0 0 1 0 .935"/><path d="M40.912 18.118a2.853 2.853 0 0 0-3.09-2.833 4.31 4.31 0 0 0-4.077-2.89c-.376 0-.741.048-1.089.138a5.278 5.278 0 0 0-4.188-2.055 5.28 5.28 0 0 0-4.755 2.969 3.851 3.851 0 0 0-.52-.036c-2.1 0-3.801 1.69-3.801 3.775s1.701 3.776 3.8 3.776H38.07a2.853 2.853 0 0 0 2.843-2.844m96.953 42.81a2.853 2.853 0 0 1 3.09-2.833 4.31 4.31 0 0 1 4.077-2.889c.376 0 .741.048 1.089.138a5.279 5.279 0 0 1 4.187-2.055 5.28 5.28 0 0 1 4.756 2.969c.17-.023.344-.036.52-.036 2.1 0 3.801 1.69 3.801 3.775s-1.701 3.775-3.8 3.775h-14.877a2.853 2.853 0 0 1-2.843-2.843m3.223-26.745c-.31 0-.606.054-.88.153a3.939 3.939 0 0 0-2.998-2.755 6.017 6.017 0 0 0-5.75-4.204 6.012 6.012 0 0 0-5.89 4.745 3.74 3.74 0 0 0-1.137-.176 3.72 3.72 0 0 0-3.465 2.35 2.535 2.535 0 0 0-2.798 2.514 2.535 2.535 0 0 0 2.543 2.527h20.375a2.585 2.585 0 0 0 2.594-2.577 2.585 2.585 0 0 0-2.594-2.577M36.368 74.411c.227 0 .444.04.646.112a2.887 2.887 0 0 1 2.196-2.019 4.41 4.41 0 0 1 4.214-3.081 4.406 4.406 0 0 1 4.318 3.478 2.727 2.727 0 0 1 3.373 1.594 1.858 1.858 0 0 1 2.051 1.842 1.858 1.858 0 0 1-1.864 1.852H36.368a1.895 1.895 0 0 1-1.901-1.889c0-1.043.85-1.889 1.9-1.889" fill="#FEFEFE"/></g></svg>