<svg xmlns="http://www.w3.org/2000/svg" width="380" height="250"><g fill="none" fill-rule="evenodd"><path fill="#8EC5FC" d="M315.499 124.814c0 68.933-55.853 124.814-124.75 124.814C121.852 249.628 66 193.748 66 124.814 66 55.881 121.852 0 190.75 0c68.896 0 124.749 55.881 124.749 124.814"/><path fill="#CDE6FF" d="M253.25 141.5h88.843c3.076 0 5.57-3.246 5.57-7.25s-2.494-7.25-5.57-7.25H253.25c-3.076 0-5.57 3.246-5.57 7.25s2.494 7.25 5.57 7.25"/><path fill="#8EC5FC" d="M318.943 9.24H194.605a4.495 4.495 0 0 1-4.494-4.495 4.495 4.495 0 0 1 4.494-4.496h124.338a4.495 4.495 0 0 1 4.494 4.496 4.495 4.495 0 0 1-4.494 4.496"/><path fill="#CDE6FF" d="M199.488 18.022h91.206a4.39 4.39 0 0 0 4.388-4.39 4.39 4.39 0 0 0-4.388-4.391h-91.206a4.39 4.39 0 0 0-4.388 4.39 4.39 4.39 0 0 0 4.388 4.391"/><path fill="#8EC5FC" d="M58.58 28.154h78.628a5.065 5.065 0 0 0 5.063-5.066 5.065 5.065 0 0 0-5.063-5.066H58.58a5.065 5.065 0 0 0-5.063 5.066 5.065 5.065 0 0 0 5.063 5.066"/><path fill="#CDE6FF" d="M185.584 36.287H69.426a4.065 4.065 0 0 1-4.064-4.067 4.065 4.065 0 0 1 4.064-4.066h116.158a4.065 4.065 0 0 1 4.064 4.066 4.065 4.065 0 0 1-4.064 4.067"/><path fill="#8EC5FC" d="M18.391 49.445h93.942a6.577 6.577 0 0 0 6.576-6.58 6.577 6.577 0 0 0-6.576-6.578H18.39a6.577 6.577 0 0 0-6.576 6.579 6.577 6.577 0 0 0 6.576 6.579m354.167 13.833H183.714a6.915 6.915 0 0 1-6.912-6.916 6.915 6.915 0 0 1 6.912-6.917h188.844a6.915 6.915 0 0 1 6.913 6.917 6.915 6.915 0 0 1-6.913 6.916"/><path fill="#CDE6FF" d="M315.243 77.51c2.93 0 5.307-3.187 5.307-7.116 0-3.93-2.376-7.116-5.307-7.116h-67.824c-2.931 0-5.307 3.186-5.307 7.116 0 3.93 2.376 7.115 5.307 7.115h67.824z"/><path fill="#8EC5FC" d="M335.308 88.419H228.001a5.453 5.453 0 0 1-5.452-5.455A5.453 5.453 0 0 1 228 77.509h107.307a5.453 5.453 0 0 1 5.452 5.455 5.453 5.453 0 0 1-5.452 5.455m-297.06 14.274h185.951a7.135 7.135 0 0 0 7.134-7.137 7.135 7.135 0 0 0-7.134-7.137H38.247a7.135 7.135 0 0 0-7.134 7.137 7.135 7.135 0 0 0 7.134 7.137"/><path fill="#CDE6FF" d="M114.358 116.01H7.486c-3.132 0-5.67-2.981-5.67-6.658 0-3.678 2.538-6.659 5.67-6.659h106.872c3.131 0 5.67 2.981 5.67 6.659 0 3.677-2.539 6.658-5.67 6.658"/><path fill="#8EC5FC" d="M333.497 206.376H248.01a5.9 5.9 0 0 1-5.898-5.902 5.9 5.9 0 0 1 5.898-5.901h85.487a5.9 5.9 0 0 1 5.899 5.9 5.9 5.9 0 0 1-5.899 5.903M13.154 153.623h110.79a6.346 6.346 0 0 0 6.344-6.347 6.346 6.346 0 0 0-6.344-6.348H13.154a6.346 6.346 0 0 0-6.345 6.348 6.346 6.346 0 0 0 6.345 6.347"/><path fill="#CDE6FF" d="M50.37 167.855h59.499a7.114 7.114 0 0 0 7.112-7.116 7.114 7.114 0 0 0-7.112-7.116H50.37a7.114 7.114 0 0 0-7.113 7.116 7.114 7.114 0 0 0 7.113 7.116"/><path fill="#FEFEFE" d="M74.62 27.08H31.112a.956.956 0 0 1 0-1.912H74.62a.956.956 0 0 1 0 1.912m-13.792 4.406H31.113a.956.956 0 0 1 0-1.912h29.714a.956.956 0 0 1 0 1.912m-7.836 98.659H29.339a.956.956 0 0 1 0-1.912H52.99a.956.956 0 0 1 0 1.912m65.672 2H95.01a.956.956 0 0 1 0-1.912h23.652a.956.956 0 0 1 0 1.912m-6.319-4h-6.727a.956.956 0 0 1 0-1.912h6.727a.956.956 0 0 1 0 1.912m-50.886-4.987h-32.12a.956.956 0 0 1 0-1.912h32.12a.956.956 0 0 1 0 1.912m253.948-64.026h-29.713a.956.956 0 0 1 0-1.912h29.713a.956.956 0 0 1 0 1.912m-82.46-44.545h-56.149a.956.956 0 0 1 0-1.912h56.148a.956.956 0 0 1 0 1.912m-109.108 27.55H94.124a.956.956 0 0 1 0-1.912h29.713a.956.956 0 0 1 0 1.912m-40.709 6h-11.67a.956.956 0 0 1 0-1.912h11.67a.956.956 0 0 1 0 1.912m-31.323 32.94h-39.99a.956.956 0 0 1 0-1.912h39.99a.956.956 0 0 1 0 1.912m259.729 0h-52.717a.956.956 0 0 1 0-1.912h52.717a.956.956 0 0 1 0 1.912m-24.854 50.414h-29.713a.956.956 0 0 1 0-1.912h29.713a.956.956 0 0 1 0 1.912M133.765 10.197h-29.713a.956.956 0 0 1 0-1.912h29.713a.956.956 0 0 1 0 1.912m10 207.47h-29.713a.956.956 0 0 1 0-1.912h29.713a.956.956 0 0 1 0 1.912m136.033 0h-29.713a.956.956 0 0 1 0-1.912h29.713a.956.956 0 0 1 0 1.912m-176.134 0H91.19a.956.956 0 0 1 0-1.912h12.474a.956.956 0 0 1 0 1.912m183.016-90.764h-34.424a.956.956 0 0 1 0-1.912h34.424a.956.956 0 0 1 0 1.912M107.33 187.21H72.908a.956.956 0 0 1 0-1.912h34.423a.956.956 0 0 1 0 1.912m14.294-6.308H87.202a.956.956 0 0 1 0-1.912h34.423a.956.956 0 0 1 0 1.912m-81.713-14H26.07a.956.956 0 0 1 0-1.912h13.843a.956.956 0 0 1 0 1.912m252.355 3.187h-34.423a.956.956 0 0 1 0-1.912h34.423a.956.956 0 0 1 0 1.912m35.413-.57h-23.244a.956.956 0 0 1 0-1.912h23.244a.956.956 0 0 1 0 1.912M315.406 65.465h-36.88a.956.956 0 0 1 0-1.912h36.88a.956.956 0 0 1 0 1.912m-16.97 82.828h-36.88a.956.956 0 0 1 0-1.912h36.88a.956.956 0 0 1 0 1.912M67.478 36.025H31.113a.956.956 0 0 1 0-1.912h36.365a.956.956 0 0 1 0 1.912"/><path d="M44.09 33.06a5.815 5.815 0 0 0-6.277-5.797c-1.182-3.438-4.441-5.91-8.28-5.91a8.76 8.76 0 0 0-2.21.282 10.694 10.694 0 0 0-8.505-4.203c-4.253 0-7.928 2.48-9.658 6.073a7.72 7.72 0 0 0-8.776 7.648 7.72 7.72 0 0 0 7.718 7.722h30.214a5.814 5.814 0 0 0 5.775-5.816m233.4 94.13a5.815 5.815 0 0 1 6.277-5.795 8.757 8.757 0 0 1 8.28-5.91 8.78 8.78 0 0 1 2.21.282 10.695 10.695 0 0 1 8.505-4.203c4.253 0 7.928 2.48 9.659 6.072a7.72 7.72 0 0 1 8.775 7.648 7.72 7.72 0 0 1-7.718 7.723h-30.214v-.001a5.814 5.814 0 0 1-5.775-5.815m13.056-67.268c-.628 0-1.23.11-1.789.312a8.022 8.022 0 0 0-6.086-5.634c-1.547-4.982-6.19-8.6-11.678-8.6-5.886 0-10.8 4.163-11.963 9.706a7.556 7.556 0 0 0-9.347 4.448A5.166 5.166 0 0 0 244 65.296a5.167 5.167 0 0 0 5.165 5.168h41.381a5.27 5.27 0 0 0 5.269-5.271 5.27 5.27 0 0 0-5.269-5.271M47.861 129.204c.461 0 .902.081 1.312.229a5.879 5.879 0 0 1 4.461-4.13 8.966 8.966 0 0 1 8.56-6.303c4.314 0 7.915 3.051 8.768 7.114a5.536 5.536 0 0 1 6.85 3.26 3.787 3.787 0 0 1 4.166 3.769 3.787 3.787 0 0 1-3.785 3.788H47.86a3.863 3.863 0 0 1-3.86-3.863 3.863 3.863 0 0 1 3.861-3.864" fill="#FEFEFE"/><g fill="#0056AD" transform="translate(126 60)"><path fill-rule="nonzero" d="M65 0C29.16 0 0 29.157 0 65c0 35.841 29.159 65 65 65 35.84 0 65-29.159 65-65 0-35.843-29.159-65-65-65zm0 122.173c-31.525 0-57.175-25.65-57.175-57.175 0-4.561.553-8.992 1.567-13.248 4.467-1.436 13.5-6.924 31.478-21.75l8.26-8.263s21.515 41.685 70.732 27.203a57.086 57.086 0 0 1 2.31 16.058c.001 31.527-25.644 57.175-57.171 57.175z"/><circle cx="43.333" cy="75.581" r="9.07" fill-rule="nonzero"/><circle cx="85.659" cy="75.581" r="9.07" fill-rule="nonzero"/><path fill-rule="nonzero" d="M51.163 43.862a2.64 2.64 0 0 0-3.481-1.304l-19.93 8.894a2.598 2.598 0 0 0-1.318 3.446 2.647 2.647 0 0 0 3.483 1.304l19.93-8.894a2.598 2.598 0 0 0 1.316-3.446zm51.989 18.577l-20.026-7.844c-1.323-.52-2.827.15-3.341 1.506-.511 1.354.152 2.875 1.483 3.396l20.025 7.845c.305.12.618.177.928.177 1.036 0 2.015-.64 2.411-1.684.514-1.353-.15-2.876-1.48-3.396z"/><path d="M84.915 111.436a2.485 2.485 0 0 1-1.626.57c-.732 0-1.544-.326-2.032-.976-.244-.244-5.69-6.747-15.769-6.747-10.16 0-15.688 6.666-15.769 6.747-.894 1.138-2.6 1.3-3.739.406-1.138-.894-1.3-2.6-.406-3.739.325-.325 7.153-8.697 19.833-8.697s19.589 8.372 19.833 8.697c.975 1.22.813 2.845-.325 3.74z"/></g></g></svg>