<svg xmlns="http://www.w3.org/2000/svg" width="394" height="250"><g fill="none" fill-rule="evenodd"><path fill="#8EC5FC" d="M196.75 249.628c-68.898 0-124.75-55.88-124.75-124.814C72 55.881 127.852 0 196.75 0c68.896 0 124.749 55.881 124.749 124.814 0 68.933-55.853 124.814-124.75 124.814z"/><path fill="#8EC5FC" d="M332.943 9.24H208.605a4.495 4.495 0 0 1-4.494-4.495 4.495 4.495 0 0 1 4.494-4.496h124.338a4.495 4.495 0 0 1 4.494 4.496 4.495 4.495 0 0 1-4.494 4.496"/><path fill="#CDE6FF" d="M213.488 18.022h91.206a4.39 4.39 0 0 0 4.388-4.39 4.39 4.39 0 0 0-4.388-4.391h-91.206a4.39 4.39 0 0 0-4.388 4.39 4.39 4.39 0 0 0 4.388 4.391"/><path fill="#8EC5FC" d="M72.58 28.154h78.628a5.065 5.065 0 0 0 5.063-5.066 5.065 5.065 0 0 0-5.063-5.066H72.58a5.065 5.065 0 0 0-5.063 5.066 5.065 5.065 0 0 0 5.063 5.066"/><path fill="#CDE6FF" d="M199.584 36.287H83.426a4.065 4.065 0 0 1-4.064-4.067 4.065 4.065 0 0 1 4.064-4.066h116.158a4.065 4.065 0 0 1 4.064 4.066 4.065 4.065 0 0 1-4.064 4.067"/><path fill="#8EC5FC" d="M32.391 49.445h93.942a6.577 6.577 0 0 0 6.576-6.58 6.577 6.577 0 0 0-6.576-6.578H32.39a6.577 6.577 0 0 0-6.576 6.579 6.577 6.577 0 0 0 6.576 6.579m354.167 13.833H197.714a6.915 6.915 0 0 1-6.912-6.916 6.915 6.915 0 0 1 6.912-6.917h188.844a6.915 6.915 0 0 1 6.913 6.917 6.915 6.915 0 0 1-6.913 6.916"/><path fill="#CDE6FF" d="M236.549 77.51h90.89a7.114 7.114 0 0 0 7.11-7.116 7.114 7.114 0 0 0-7.11-7.116h-90.89a7.113 7.113 0 0 0-7.112 7.116 7.114 7.114 0 0 0 7.112 7.115"/><path fill="#8EC5FC" d="M349.308 88.419H242.001a5.453 5.453 0 0 1-5.452-5.455A5.453 5.453 0 0 1 242 77.509h107.307a5.453 5.453 0 0 1 5.452 5.455 5.453 5.453 0 0 1-5.452 5.455m-297.06 14.274h185.951a7.135 7.135 0 0 0 7.134-7.137 7.135 7.135 0 0 0-7.134-7.137H52.247a7.135 7.135 0 0 0-7.134 7.137 7.135 7.135 0 0 0 7.134 7.137"/><path fill="#CDE6FF" d="M128.358 116.01H21.486c-3.132 0-5.67-2.981-5.67-6.658 0-3.678 2.538-6.659 5.67-6.659h106.872c3.131 0 5.67 2.981 5.67 6.659 0 3.677-2.539 6.658-5.67 6.658"/><path fill="#8EC5FC" d="M347.497 206.376H262.01a5.9 5.9 0 0 1-5.898-5.902 5.9 5.9 0 0 1 5.898-5.901h85.487a5.9 5.9 0 0 1 5.899 5.9 5.9 5.9 0 0 1-5.899 5.903M27.154 153.623h110.79a6.346 6.346 0 0 0 6.344-6.347 6.346 6.346 0 0 0-6.344-6.348H27.154a6.346 6.346 0 0 0-6.345 6.348 6.346 6.346 0 0 0 6.345 6.347"/><path fill="#CDE6FF" d="M64.37 167.855h59.499a7.114 7.114 0 0 0 7.112-7.116 7.114 7.114 0 0 0-7.112-7.116H64.37a7.114 7.114 0 0 0-7.113 7.116 7.114 7.114 0 0 0 7.113 7.116"/><path fill="#FEFEFE" d="M88.62 27.08H45.112a.956.956 0 0 1 0-1.912H88.62a.956.956 0 0 1 0 1.912m-13.792 4.406H45.113a.956.956 0 0 1 0-1.912h29.714a.956.956 0 0 1 0 1.912M46.99 128.145H23.339a.956.956 0 0 1 0-1.912H46.99a.956.956 0 0 1 0 1.912m85.672 4H109.01a.956.956 0 0 1 0-1.912h23.652a.956.956 0 0 1 0 1.912m-6.319-4h-6.727a.956.956 0 0 1 0-1.912h6.727a.956.956 0 0 1 0 1.912m-70.886-6.987h-32.12a.956.956 0 0 1 0-1.912h32.12a.956.956 0 0 1 0 1.912m293.948-62.026h-29.713a.956.956 0 0 1 0-1.912h29.713a.956.956 0 0 1 0 1.912m-63.775-4h-29.714a.956.956 0 0 1 0-1.912h29.714a.956.956 0 0 1 0 1.912m-38.686-40.545h-56.148a.956.956 0 0 1 0-1.912h56.148a.956.956 0 0 1 0 1.912m-109.108 27.55h-29.713a.956.956 0 0 1 0-1.912h29.713a.956.956 0 0 1 0 1.912m-40.709 6h-11.67a.956.956 0 0 1 0-1.912h11.67a.956.956 0 0 1 0 1.912m-31.323 32.94h-39.99a.956.956 0 0 1 0-1.912h39.99a.956.956 0 0 1 0 1.912m259.729 0h-52.717a.956.956 0 0 1 0-1.912h52.717a.956.956 0 0 1 0 1.912m25.146 66.414h-29.713a.956.956 0 0 1 0-1.912h29.713a.956.956 0 0 1 0 1.912M147.765 10.197h-29.713a.956.956 0 0 1 0-1.912h29.713a.956.956 0 0 1 0 1.912m0 207.47h-29.713a.956.956 0 0 1 0-1.912h29.713a.956.956 0 0 1 0 1.912m156.033 0h-29.713a.956.956 0 0 1 0-1.912h29.713a.956.956 0 0 1 0 1.912m-196.134 0H95.19a.956.956 0 0 1 0-1.912h12.474a.956.956 0 0 1 0 1.912m243.016-74.764h-34.424a.956.956 0 0 1 0-1.912h34.424a.956.956 0 0 1 0 1.912M121.33 187.21H86.908a.956.956 0 0 1 0-1.912h34.423a.956.956 0 0 1 0 1.912m14.294-6.308h-34.423a.956.956 0 0 1 0-1.912h34.423a.956.956 0 0 1 0 1.912m-81.713-14H40.07a.956.956 0 0 1 0-1.912h13.843a.956.956 0 0 1 0 1.912m252.355 3.187h-34.423a.956.956 0 0 1 0-1.912h34.423a.956.956 0 0 1 0 1.912m54.413-.57h-23.244a.956.956 0 0 1 0-1.912h23.244a.956.956 0 0 1 0 1.912M349.406 65.465h-36.88a.956.956 0 0 1 0-1.912h36.88a.956.956 0 0 1 0 1.912m-15.97 70.828h-36.88a.956.956 0 0 1 0-1.912h36.88a.956.956 0 0 1 0 1.912M81.478 36.025H45.113a.956.956 0 0 1 0-1.912h36.365a.956.956 0 0 1 0 1.912"/><path d="M58.09 33.06a5.815 5.815 0 0 0-6.277-5.797c-1.182-3.438-4.441-5.91-8.28-5.91a8.76 8.76 0 0 0-2.21.282 10.694 10.694 0 0 0-8.505-4.203c-4.253 0-7.928 2.48-9.658 6.073a7.72 7.72 0 0 0-8.776 7.648 7.72 7.72 0 0 0 7.718 7.722h30.214a5.814 5.814 0 0 0 5.775-5.816m283.4 110.13a5.815 5.815 0 0 1 6.277-5.795 8.757 8.757 0 0 1 8.28-5.91 8.78 8.78 0 0 1 2.21.282 10.695 10.695 0 0 1 8.505-4.203c4.253 0 7.928 2.48 9.659 6.072a7.72 7.72 0 0 1 8.775 7.648 7.72 7.72 0 0 1-7.718 7.723h-30.214v-.001a5.814 5.814 0 0 1-5.775-5.815m42.493-86.556c-.628 0-1.23.11-1.79.313a8.022 8.022 0 0 0-6.086-5.635c-1.546-4.982-6.19-8.6-11.677-8.6-5.886 0-10.8 4.163-11.963 9.707a7.556 7.556 0 0 0-9.347 4.448 5.166 5.166 0 0 0-5.683 5.142 5.167 5.167 0 0 0 5.165 5.167h41.38a5.27 5.27 0 0 0 5.27-5.27 5.27 5.27 0 0 0-5.27-5.272M4.079 122.541c.46 0 .902.081 1.312.23a5.879 5.879 0 0 1 4.461-4.13 8.966 8.966 0 0 1 8.56-6.304c4.314 0 7.915 3.051 8.768 7.114a5.536 5.536 0 0 1 6.85 3.26 3.787 3.787 0 0 1 4.166 3.769 3.787 3.787 0 0 1-3.785 3.788H4.078a3.863 3.863 0 0 1-3.861-3.863 3.863 3.863 0 0 1 3.861-3.864" fill="#FEFEFE"/><path fill="#CDE6FF" d="M242.777 165.5h108.108c3.743 0 6.778-3.246 6.778-7.25s-3.035-7.25-6.778-7.25H242.777c-3.742 0-6.777 3.246-6.777 7.25s3.035 7.25 6.777 7.25"/><g fill="#0056AD" fill-rule="nonzero"><path d="M232.602 108.56h-10.424V95.107c0-13.899-11.21-25.108-25.109-25.108-13.899 0-25.108 11.21-25.108 25.108v13.451h-10.424A10.524 10.524 0 0 0 151 119.096v50.329a10.524 10.524 0 0 0 10.537 10.536h70.953a10.524 10.524 0 0 0 10.537-10.536v-50.33c.112-5.828-4.596-10.536-10.425-10.536zm-51.225-13.452c0-8.63 7.061-15.692 15.692-15.692s15.693 7.061 15.693 15.692v13.451h-31.385V95.11zm52.346 74.317c0 .672-.56 1.12-1.12 1.12h-71.066c-.673 0-1.121-.56-1.121-1.12v-50.33c0-.672.56-1.12 1.12-1.12h70.954c.673 0 1.121.56 1.121 1.12v50.33h.112z"/><path d="M195.896 132.756c-5.38 0-9.64 4.372-9.64 9.64 0 3.475 1.906 6.614 4.708 8.295v9.64h9.976v-9.64c2.803-1.681 4.708-4.708 4.708-8.295-.112-5.38-4.371-9.64-9.752-9.64z"/></g></g></svg>