<svg xmlns="http://www.w3.org/2000/svg" width="394" height="251"><g fill="none" fill-rule="evenodd"><path fill="#8EC5FC" d="M321.416 125.731c0 68.933-55.853 124.814-124.75 124.814-68.897 0-124.749-55.88-124.749-124.814C71.917 56.798 127.769.917 196.667.917c68.896 0 124.749 55.881 124.749 124.814"/><path fill="#CDE6FF" d="M213.694 143.59h108.108c3.743 0 6.778-2.267 6.778-5.065 0-2.798-3.035-5.066-6.778-5.066H213.694c-3.742 0-6.777 2.268-6.777 5.066s3.035 5.066 6.777 5.066m114.402-13.09H214.738c-4.32 0-7.821-3.874-7.821-8.651 0-4.777 3.502-8.65 7.821-8.65h113.358c4.32 0 7.822 3.873 7.822 8.65s-3.502 8.65-7.822 8.65"/><path fill="#8EC5FC" d="M332.86 10.158H208.522a4.495 4.495 0 0 1-4.494-4.496 4.495 4.495 0 0 1 4.494-4.496H332.86a4.495 4.495 0 0 1 4.494 4.496 4.495 4.495 0 0 1-4.494 4.496"/><path fill="#CDE6FF" d="M213.405 18.939h91.206a4.39 4.39 0 0 0 4.388-4.39 4.39 4.39 0 0 0-4.388-4.391h-91.206a4.39 4.39 0 0 0-4.388 4.39 4.39 4.39 0 0 0 4.388 4.391"/><path fill="#8EC5FC" d="M72.497 29.07h78.628a5.065 5.065 0 0 0 5.063-5.065 5.065 5.065 0 0 0-5.063-5.066H72.497a5.065 5.065 0 0 0-5.063 5.066 5.065 5.065 0 0 0 5.063 5.066"/><path fill="#CDE6FF" d="M199.5 37.204H83.344a4.065 4.065 0 0 1-4.064-4.067 4.065 4.065 0 0 1 4.064-4.066h116.158a4.065 4.065 0 0 1 4.064 4.066 4.065 4.065 0 0 1-4.064 4.067"/><path fill="#8EC5FC" d="M32.308 50.362h93.942a6.577 6.577 0 0 0 6.576-6.58 6.577 6.577 0 0 0-6.576-6.578H32.308a6.577 6.577 0 0 0-6.576 6.579 6.577 6.577 0 0 0 6.576 6.579m354.167 3.833H197.631a6.915 6.915 0 0 1-6.912-6.916 6.915 6.915 0 0 1 6.912-6.917h188.844a6.915 6.915 0 0 1 6.913 6.917 6.915 6.915 0 0 1-6.913 6.916"/><path fill="#CDE6FF" d="M236.466 68.426h90.89a7.114 7.114 0 0 0 7.11-7.115 7.114 7.114 0 0 0-7.11-7.116h-90.89a7.113 7.113 0 0 0-7.112 7.116 7.114 7.114 0 0 0 7.112 7.115"/><path fill="#8EC5FC" d="M349.225 79.336H241.918a5.453 5.453 0 0 1-5.452-5.455 5.453 5.453 0 0 1 5.452-5.455h107.307a5.453 5.453 0 0 1 5.452 5.455 5.453 5.453 0 0 1-5.452 5.455M52.164 103.61h185.951a7.135 7.135 0 0 0 7.134-7.137 7.135 7.135 0 0 0-7.134-7.137H52.164a7.135 7.135 0 0 0-7.134 7.137 7.135 7.135 0 0 0 7.134 7.137"/><path fill="#CDE6FF" d="M147.826 116.927H22.388a6.656 6.656 0 0 1-6.655-6.658 6.656 6.656 0 0 1 6.655-6.659h125.438a6.656 6.656 0 0 1 6.655 6.659 6.656 6.656 0 0 1-6.655 6.658"/><path fill="#8EC5FC" d="M347.414 207.293h-85.487a5.9 5.9 0 0 1-5.898-5.902 5.9 5.9 0 0 1 5.898-5.901h85.487a5.9 5.9 0 0 1 5.899 5.9 5.9 5.9 0 0 1-5.899 5.903M27.071 154.54h110.79a6.346 6.346 0 0 0 6.344-6.347 6.346 6.346 0 0 0-6.344-6.348H27.071a6.346 6.346 0 0 0-6.345 6.348 6.346 6.346 0 0 0 6.345 6.347"/><path fill="#CDE6FF" d="M74.288 168.772h59.498a7.114 7.114 0 0 0 7.112-7.116 7.114 7.114 0 0 0-7.112-7.116H74.288a7.114 7.114 0 0 0-7.113 7.116 7.114 7.114 0 0 0 7.113 7.116"/><path fill="#FEFEFE" d="M88.536 27.997H45.03a.956.956 0 0 1 0-1.912h43.506a.956.956 0 0 1 0 1.912m-13.792 4.406H45.03a.956.956 0 0 1 0-1.912h29.714a.956.956 0 0 1 0 1.912m-27.836 86.659H23.256a.956.956 0 0 1 0-1.912h23.652a.956.956 0 0 1 0 1.912m92.672 6h-23.652a.956.956 0 0 1 0-1.912h23.652a.956.956 0 0 1 0 1.912m-33.319 0h-6.727a.956.956 0 0 1 0-1.912h6.727a.956.956 0 0 1 0 1.912m-50.886-12.987h-32.12a.956.956 0 0 1 0-1.912h32.12a.956.956 0 0 1 0 1.912M349.323 50.05H319.61a.956.956 0 0 1 0-1.912h29.713a.956.956 0 0 1 0 1.912m-63.775-4h-29.714a.956.956 0 0 1 0-1.912h29.714a.956.956 0 0 1 0 1.912m-38.686-30.545h-56.148a.956.956 0 0 1 0-1.912h56.148a.956.956 0 0 1 0 1.912m-109.108 27.55H108.04a.956.956 0 0 1 0-1.912h29.713a.956.956 0 0 1 0 1.912m-40.709 6h-11.67a.956.956 0 0 1 0-1.912h11.67a.956.956 0 0 1 0 1.912m-31.323 32.94h-39.99a.956.956 0 0 1 0-1.912h39.99a.956.956 0 0 1 0 1.912m259.729-9h-52.717a.956.956 0 0 1 0-1.912h52.717a.956.956 0 0 1 0 1.912m-28.865 113.969h-29.713a.956.956 0 0 1 0-1.912h29.713a.956.956 0 0 1 0 1.912M147.682 11.114H117.97a.956.956 0 0 1 0-1.912h29.713a.956.956 0 0 1 0 1.912m0 207.47H117.97a.956.956 0 0 1 0-1.912h29.713a.956.956 0 0 1 0 1.912m156.033 0h-29.713a.956.956 0 0 1 0-1.912h29.713a.956.956 0 0 1 0 1.912m-170.134-6h-12.474a.956.956 0 0 1 0-1.912h12.474a.956.956 0 0 1 0 1.912m163.715-30.621h-34.423a.956.956 0 0 1 0-1.912h34.423a.956.956 0 0 1 0 1.912m-170.048 6.165H92.825a.956.956 0 0 1 0-1.912h34.423a.956.956 0 0 1 0 1.912m30.294-14.308h-34.423a.956.956 0 0 1 0-1.912h34.423a.956.956 0 0 1 0 1.912m-103.713-6H39.986a.956.956 0 0 1 0-1.912h13.843a.956.956 0 0 1 0 1.912m259.355-10.813h-34.423a.956.956 0 0 1 0-1.912h34.423a.956.956 0 0 1 0 1.912m-16.068 20.956h-23.243a.956.956 0 0 1 0-1.912h23.243a.956.956 0 0 1 0 1.912m52.207-121.581h-36.88a.956.956 0 0 1 0-1.912h36.88a.956.956 0 0 1 0 1.912m-57.97 52.828h-36.88a.956.956 0 0 1 0-1.912h36.88a.956.956 0 0 1 0 1.912M81.395 36.942H45.03a.956.956 0 0 1 0-1.912h36.365a.956.956 0 0 1 0 1.912"/><path d="M58.008 33.976a5.815 5.815 0 0 0-6.278-5.796c-1.182-3.438-4.441-5.91-8.28-5.91a8.76 8.76 0 0 0-2.21.282 10.694 10.694 0 0 0-8.505-4.203c-4.253 0-7.928 2.48-9.658 6.073A7.72 7.72 0 0 0 14.3 32.07a7.72 7.72 0 0 0 7.718 7.722h30.214a5.814 5.814 0 0 0 5.775-5.816m76.616 183.564a3.819 3.819 0 0 0-4.123-3.807 5.752 5.752 0 0 0-6.89-3.696 7.038 7.038 0 0 0-11.93 1.228 5.07 5.07 0 0 0-5.764 5.024 5.07 5.07 0 0 0 5.07 5.07h19.844a3.819 3.819 0 0 0 3.793-3.82m143.293-30.862a5.815 5.815 0 0 1 6.277-5.796c1.183-3.438 4.442-5.91 8.28-5.91a8.78 8.78 0 0 1 2.21.282 10.695 10.695 0 0 1 8.506-4.202c4.253 0 7.927 2.479 9.659 6.072a7.72 7.72 0 0 1 8.775 7.648 7.72 7.72 0 0 1-7.718 7.722h-30.214a5.814 5.814 0 0 1-5.775-5.816m104.82-153.766a6.4 6.4 0 0 0-2.184.382 9.792 9.792 0 0 0-7.43-6.878c-1.887-6.082-7.556-10.498-14.255-10.498-7.185 0-13.183 5.081-14.603 11.848a9.214 9.214 0 0 0-2.82-.44 9.221 9.221 0 0 0-8.59 5.87 6.307 6.307 0 0 0-6.938 6.277 6.307 6.307 0 0 0 6.305 6.308h50.515a6.433 6.433 0 0 0 6.431-6.434 6.433 6.433 0 0 0-6.43-6.435M3.994 113.458c.46 0 .902.081 1.312.23a5.879 5.879 0 0 1 4.461-4.13 8.966 8.966 0 0 1 8.56-6.304c4.314 0 7.915 3.051 8.768 7.114a5.536 5.536 0 0 1 6.85 3.26 3.787 3.787 0 0 1 4.166 3.769 3.787 3.787 0 0 1-3.785 3.788H3.995a3.863 3.863 0 0 1-3.861-3.863 3.863 3.863 0 0 1 3.861-3.864" fill="#FEFEFE"/><path fill="#0056AD" fill-rule="nonzero" stroke="#0056AD" d="M245.696 139.667c0-3.766-1.991-7.165-5.05-9.077a10.626 10.626 0 0 0 1.994-6.201c0-5.897-4.797-10.695-10.695-10.695h-33.96a102.226 102.226 0 0 0 4.932-31.046c.021-5.991-4.31-11.002-10.073-11.657-5.938-.679-11.442 3.396-12.51 9.274l-.23 1.263a80.294 80.294 0 0 1-15.303 34.46c-3.362 4.367-8.403 6.873-13.828 6.873a3.055 3.055 0 0 0-3.056 3.056v39.722c.016.796.329 1.595.895 2.161 8.459 8.458 19.706 13.117 31.669 13.117h45.033c5.9 0 10.839-4.65 11.011-10.367a10.615 10.615 0 0 0-1.583-5.928c3.639-1.708 6.171-5.397 6.171-9.676 0-2.054-.591-3.966-1.598-5.596 3.644-1.707 6.18-5.4 6.18-9.683zm-32.084-19.862h18.333a4.589 4.589 0 0 1 4.584 4.584 4.589 4.589 0 0 1-4.584 4.583h-18.333a4.589 4.589 0 0 1-4.583-4.583 4.589 4.589 0 0 1 4.583-4.584zm-6.593 55h-26.538c-9.917 0-19.259-3.716-26.453-10.474v-35.557c6.15-.8 11.724-4.003 15.617-9.059a86.458 86.458 0 0 0 16.473-37.097l.23-1.263c.493-2.722 3.037-4.604 5.806-4.293 2.62.298 4.662 2.742 4.653 5.564a96.138 96.138 0 0 1-4.94 30.112l-1.014 3.044a3.058 3.058 0 0 0 2.898 4.024h10.213a10.612 10.612 0 0 0-1.047 4.583 10.66 10.66 0 0 0 3.225 7.639 10.66 10.66 0 0 0 0 15.278 10.66 10.66 0 0 0-3.225 7.639c0 3.826 2.027 7.181 5.058 9.071a10.622 10.622 0 0 0-2.002 6.206c0 1.642.383 3.193 1.046 4.584zm18.494 0h-8.845a4.589 4.589 0 0 1-4.584-4.583 4.589 4.589 0 0 1 4.584-4.583h9.166c1.25 0 2.42.494 3.29 1.392a4.549 4.549 0 0 1 1.291 3.336c-.073 2.448-2.272 4.439-4.902 4.439zm4.905-15.277h-16.806a4.589 4.589 0 0 1-4.583-4.583 4.589 4.589 0 0 1 4.583-4.584h16.806a4.589 4.589 0 0 1 4.583 4.584 4.589 4.589 0 0 1-4.583 4.583zM235 144.25h-21.39a4.589 4.589 0 0 1-4.582-4.583 4.589 4.589 0 0 1 4.583-4.584H235c.31 0 .62.03.92.092a4.595 4.595 0 0 1 3.663 4.492A4.589 4.589 0 0 1 235 144.25z"/></g></svg>