<svg xmlns="http://www.w3.org/2000/svg" width="292" height="185"><g fill="none" fill-rule="evenodd"><path fill="#8EC5FC" d="M238.268 92.362c0 51.01-41.393 92.363-92.454 92.363-51.06 0-92.454-41.352-92.454-92.363C53.36 41.352 94.754 0 145.814 0c51.06 0 92.454 41.352 92.454 92.362"/><path fill="#8EC5FC" d="M246.75 6.838H154.6c-1.84 0-3.33-1.49-3.33-3.327A3.329 3.329 0 0 1 154.6.184h92.149c1.84 0 3.33 1.49 3.33 3.327a3.329 3.329 0 0 1-3.33 3.327"/><path fill="#CDE6FF" d="M158.22 13.336h67.594a3.25 3.25 0 0 0 3.252-3.249 3.25 3.25 0 0 0-3.252-3.249H158.22a3.25 3.25 0 0 0-3.252 3.25 3.25 3.25 0 0 0 3.252 3.248"/><path fill="#8EC5FC" d="M53.79 20.834h58.273a3.75 3.75 0 0 0 3.752-3.749 3.75 3.75 0 0 0-3.752-3.749H53.79a3.75 3.75 0 0 0-3.753 3.75 3.75 3.75 0 0 0 3.753 3.748"/><path fill="#CDE6FF" d="M147.915 26.852H61.829a3.01 3.01 0 0 1-3.012-3.009 3.01 3.01 0 0 1 3.012-3.01h86.086a3.01 3.01 0 0 1 3.012 3.01 3.01 3.01 0 0 1-3.012 3.01"/><path fill="#8EC5FC" d="M24.006 36.59h69.622a4.871 4.871 0 0 0 4.873-4.87 4.871 4.871 0 0 0-4.873-4.868H24.006a4.871 4.871 0 0 0-4.873 4.869 4.871 4.871 0 0 0 4.873 4.868m262.479 10.237H146.53a5.12 5.12 0 0 1-5.123-5.118 5.12 5.12 0 0 1 5.123-5.119h139.955a5.12 5.12 0 0 1 5.123 5.119 5.12 5.12 0 0 1-5.123 5.118"/><path fill="#CDE6FF" d="M175.31 57.357h67.36c2.91 0 5.27-2.358 5.27-5.266a5.268 5.268 0 0 0-5.27-5.265h-67.36a5.268 5.268 0 0 0-5.27 5.265 5.268 5.268 0 0 0 5.27 5.266"/><path fill="#8EC5FC" d="M258.878 65.43h-79.527a4.039 4.039 0 0 1-4.04-4.037 4.039 4.039 0 0 1 4.04-4.036h79.527a4.039 4.039 0 0 1 4.041 4.036 4.039 4.039 0 0 1-4.04 4.037M38.72 75.993h137.812a5.284 5.284 0 0 0 5.287-5.281 5.284 5.284 0 0 0-5.287-5.282H38.72a5.284 5.284 0 0 0-5.286 5.282 5.284 5.284 0 0 0 5.286 5.281"/><path fill="#CDE6FF" d="M95.128 85.847H15.924c-2.321 0-4.202-2.206-4.202-4.927 0-2.72 1.88-4.927 4.202-4.927h79.204c2.321 0 4.202 2.206 4.202 4.927 0 2.721-1.881 4.927-4.202 4.927"/><path fill="#8EC5FC" d="M257.536 152.718H194.18a4.37 4.37 0 0 1-4.371-4.367 4.37 4.37 0 0 1 4.371-4.367h63.356a4.37 4.37 0 0 1 4.372 4.367 4.37 4.37 0 0 1-4.372 4.367M20.124 113.68h82.109a4.7 4.7 0 0 0 4.702-4.697 4.7 4.7 0 0 0-4.702-4.697H20.124a4.7 4.7 0 0 0-4.702 4.697 4.7 4.7 0 0 0 4.702 4.697"/><path fill="#CDE6FF" d="M47.706 124.213h44.095a5.268 5.268 0 0 0 5.271-5.266 5.268 5.268 0 0 0-5.27-5.266H47.705a5.268 5.268 0 0 0-5.27 5.266 5.268 5.268 0 0 0 5.27 5.266"/><path fill="#FEFEFE" d="M96.063 21.52H63.82a.708.708 0 1 1 0-1.415h32.243a.708.708 0 1 1 0 1.415m-10.222 3.26h-22.02a.708.708 0 1 1 0-1.415h22.02a.708.708 0 1 1 0 1.415M34.826 94.827h-17.53a.708.708 0 1 1 0-1.415h17.53a.708.708 0 1 1 0 1.415m63.493 2.96H80.79a.708.708 0 1 1 0-1.415h17.53a.708.708 0 1 1 0 1.415m-4.683-2.96H88.65a.708.708 0 1 1 0-1.415h4.986a.708.708 0 1 1 0 1.415M41.1 89.657H17.297a.708.708 0 1 1 0-1.415H41.1a.708.708 0 1 1 0 1.415m217.85-45.9h-22.02a.708.708 0 1 1 0-1.414h22.02a.708.708 0 1 1 0 1.415m-47.265-2.96h-22.021a.708.708 0 1 1 0-1.415h22.02a.708.708 0 1 1 0 1.415m-28.67-30.003h-41.612a.708.708 0 1 1 0-1.415h41.613a.708.708 0 1 1 0 1.415M102.153 31.18h-22.02a.708.708 0 1 1 0-1.415h22.02a.708.708 0 1 1 0 1.415m-30.17 4.44h-8.648a.708.708 0 1 1 0-1.415h8.649a.708.708 0 1 1 0 1.415M48.769 59.997H19.133a.708.708 0 1 1 0-1.415h29.636a.708.708 0 1 1 0 1.415m192.49 0h-39.07a.708.708 0 1 1 0-1.415h39.07a.708.708 0 1 1 0 1.415m18.636 49.147h-22.021a.708.708 0 1 1 0-1.415h22.02a.708.708 0 1 1 0 1.415M109.513 7.546H87.49a.708.708 0 1 1 0-1.415h22.02a.708.708 0 1 1 0 1.415m0 153.528H87.49a.708.708 0 1 1 0-1.415h22.02a.708.708 0 1 1 0 1.415m115.64 0h-22.022a.708.708 0 1 1 0-1.415h22.021a.708.708 0 1 1 0 1.415m-145.358 0h-9.245a.708.708 0 1 1 0-1.415h9.245a.708.708 0 1 1 0 1.415m10.129-22.538H64.409a.708.708 0 1 1 0-1.415h25.512a.708.708 0 1 1 0 1.415m10.593-4.668H75.003a.708.708 0 1 1 0-1.415h25.511a.708.708 0 1 1 0 1.415m-60.559-10.36H29.696a.708.708 0 1 1 0-1.415h10.26a.708.708 0 1 1 0 1.415m187.024 2.358h-25.51a.708.708 0 1 1 0-1.415h25.511a.708.708 0 1 1 0 1.415m40.326-.421H250.08a.708.708 0 1 1 0-1.415h17.226a.708.708 0 1 1 0 1.415m-8.355-77.001H231.62a.708.708 0 1 1 0-1.415h27.332a.708.708 0 1 1 0 1.415m-34.07 52.413H197.55a.708.708 0 1 1 0-1.415h27.332a.708.708 0 1 1 0 1.415M90.77 28.139H63.82a.708.708 0 1 1 0-1.415h26.95a.708.708 0 1 1 0 1.415"/><path d="M73.438 25.944a4.306 4.306 0 0 0-4.652-4.29 6.49 6.49 0 0 0-7.775-4.164 7.93 7.93 0 0 0-6.303-3.11 7.943 7.943 0 0 0-7.158 4.493 5.717 5.717 0 0 0-6.504 5.66 5.717 5.717 0 0 0 5.72 5.715h22.392v-.001a4.306 4.306 0 0 0 4.28-4.303m157.05 76.163a3.302 3.302 0 0 1 3.567-3.289 4.976 4.976 0 0 1 5.961-3.193 6.091 6.091 0 0 1 10.323 1.061 4.384 4.384 0 0 1 4.987 4.34 4.384 4.384 0 0 1-4.386 4.382h-17.17a3.302 3.302 0 0 1-3.283-3.3m3.37-71.086c-.466 0-.912.082-1.326.231a5.941 5.941 0 0 0-4.511-4.17 9.063 9.063 0 0 0-8.655-6.363 9.06 9.06 0 0 0-8.865 7.183 5.602 5.602 0 0 0-6.928 3.29A3.828 3.828 0 0 0 199.36 35a3.826 3.826 0 0 0 3.828 3.824h30.669a3.902 3.902 0 0 0 3.904-3.9 3.902 3.902 0 0 0-3.904-3.901M3.022 90.681c.342 0 .669.06.973.169A4.354 4.354 0 0 1 7.3 87.794a6.643 6.643 0 0 1 6.343-4.665 6.641 6.641 0 0 1 6.499 5.265 4.108 4.108 0 0 1 5.077 2.412 2.804 2.804 0 0 1 3.087 2.789 2.804 2.804 0 0 1-2.805 2.803H3.022A2.86 2.86 0 0 1 .161 93.54a2.86 2.86 0 0 1 2.861-2.858" fill="#FEFEFE"/><path fill="#CDE6FF" d="M172.515 142.45h80.12c2.774 0 5.023-2.402 5.023-5.365s-2.249-5.365-5.023-5.365h-80.12c-2.774 0-5.023 2.402-5.023 5.365s2.249 5.365 5.023 5.365"/><path fill="#0056AD" fill-rule="nonzero" stroke="#0056AD" d="M161.962 92.04c3.475-3.884 5.609-8.998 5.609-14.614 0-12.09-9.806-21.926-21.858-21.926-12.052 0-21.858 9.837-21.858 21.926 0 12.09 9.806 21.926 21.858 21.926 4.249 0 8.205-1.242 11.566-3.355a32.816 32.816 0 0 1 21.109 28.022H113.04a32.942 32.942 0 0 1 11.142-22.066 2.745 2.745 0 0 0 .265-3.867 2.727 2.727 0 0 0-3.855-.266 38.423 38.423 0 0 0-13.131 28.94 2.736 2.736 0 0 0 2.732 2.74h71.038a2.734 2.734 0 0 0 2.732-2.74 38.31 38.31 0 0 0-22.002-34.72zm-32.984-14.658c0-8.996 7.327-16.312 16.337-16.312s16.336 7.316 16.336 16.312c0 8.996-7.327 16.312-16.336 16.312-9.01 0-16.337-7.316-16.337-16.312z"/></g></svg>